<svg xmlns="http://www.w3.org/2000/svg" viewBox="0 0 1440 642" font-family="'SF Mono', 'Cascadia Code', Consolas, monospace">
<defs>
<linearGradient id="bg" x1="0" y1="0" x2="0" y2="1">
  <stop offset="0%" stop-color="#FAFAFA"/>
  <stop offset="100%" stop-color="#F2F2F2"/>
</linearGradient>
<linearGradient id="board" x1="0" y1="0" x2="0" y2="1">
  <stop offset="0%" stop-color="#EDE6DC"/>
  <stop offset="100%" stop-color="#D8CFBF"/>
</linearGradient>
<filter id="bshadow" x="-3%" y="-2%" width="108%" height="108%">
  <feDropShadow dx="2" dy="3" stdDeviation="5" flood-color="#00000018"/>
</filter>
<filter id="pshadow" x="-4%" y="-8%" width="112%" height="125%">
  <feDropShadow dx="0.5" dy="1" stdDeviation="1" flood-color="#00000025"/>
</filter>
<pattern id="grid" width="10" height="10" patternUnits="userSpaceOnUse">
  <path d="M10 0L0 0 0 10" fill="none" stroke="#C8BFB0" stroke-width="0.25"/>
</pattern>
<linearGradient id="gB07840" x1="0" y1="0" x2="0" y2="1">
  <stop offset="0%" stop-color="#bb8c5c"/>
  <stop offset="100%" stop-color="#9a6938"/>
</linearGradient>
<linearGradient id="g343A40" x1="0" y1="0" x2="0" y2="1">
  <stop offset="0%" stop-color="#52575c"/>
  <stop offset="100%" stop-color="#2d3338"/>
</linearGradient>
<linearGradient id="gC9B93B" x1="0" y1="0" x2="0" y2="1">
  <stop offset="0%" stop-color="#d1c358"/>
  <stop offset="100%" stop-color="#b0a233"/>
</linearGradient>
<linearGradient id="g5B9BD5" x1="0" y1="0" x2="0" y2="1">
  <stop offset="0%" stop-color="#73aadb"/>
  <stop offset="100%" stop-color="#5088bb"/>
</linearGradient>
<linearGradient id="g5CB85C" x1="0" y1="0" x2="0" y2="1">
  <stop offset="0%" stop-color="#74c274"/>
  <stop offset="100%" stop-color="#50a150"/>
</linearGradient>
<linearGradient id="g9B6DB5" x1="0" y1="0" x2="0" y2="1">
  <stop offset="0%" stop-color="#aa82c0"/>
  <stop offset="100%" stop-color="#885f9f"/>
</linearGradient>
<linearGradient id="gE8883E" x1="0" y1="0" x2="0" y2="1">
  <stop offset="0%" stop-color="#eb995a"/>
  <stop offset="100%" stop-color="#cc7736"/>
</linearGradient>
<linearGradient id="g7E8A7E" x1="0" y1="0" x2="0" y2="1">
  <stop offset="0%" stop-color="#919b91"/>
  <stop offset="100%" stop-color="#6e796e"/>
</linearGradient>
<linearGradient id="gE74C8A" x1="0" y1="0" x2="0" y2="1">
  <stop offset="0%" stop-color="#ea669b"/>
  <stop offset="100%" stop-color="#cb4279"/>
</linearGradient>
<linearGradient id="gDC3545" x1="0" y1="0" x2="0" y2="1">
  <stop offset="0%" stop-color="#e15360"/>
  <stop offset="100%" stop-color="#c12e3c"/>
</linearGradient>
</defs>
<rect width="1440" height="642" fill="url(#bg)"/>
<rect x="464" y="40" width="512" height="512" rx="10" fill="url(#board)" stroke="#C4B8AA" stroke-width="2" filter="url(#bshadow)"/>
<rect x="464" y="40" width="512" height="512" rx="10" fill="url(#grid)" opacity="0.35"/>
<circle cx="489" cy="65" r="7" fill="#FFFFFF" stroke="#AAA" stroke-width="1.2"/>
<circle cx="489" cy="65" r="4" fill="none" stroke="#CCC" stroke-width="0.5"/>
<circle cx="951" cy="65" r="7" fill="#FFFFFF" stroke="#AAA" stroke-width="1.2"/>
<circle cx="951" cy="65" r="4" fill="none" stroke="#CCC" stroke-width="0.5"/>
<circle cx="489" cy="527" r="7" fill="#FFFFFF" stroke="#AAA" stroke-width="1.2"/>
<circle cx="489" cy="527" r="4" fill="none" stroke="#CCC" stroke-width="0.5"/>
<circle cx="951" cy="527" r="7" fill="#FFFFFF" stroke="#AAA" stroke-width="1.2"/>
<circle cx="951" cy="527" r="4" fill="none" stroke="#CCC" stroke-width="0.5"/>
<rect x="661.0" y="38" width="118" height="36" rx="4" fill="#B0B0B0" stroke="#888" stroke-width="1.2"/>
<rect x="665.0" y="42" width="110" height="28" rx="2.5" fill="#9A9A9A" stroke="#777" stroke-width="0.5"/>
<text x="720.0" y="59.0" text-anchor="middle" font-size="7.5" fill="#555">USB &amp; Power</text>
<text x="720.0" y="100" text-anchor="middle" font-size="13" font-weight="bold" fill="#444" letter-spacing="1.2">ESP32-P4-NANO — JTAG + SPI Pinout</text>
<rect x="486.0" y="192" width="39.0" height="342" rx="2" fill="#1A1A1A" stroke="#333" stroke-width="0.5"/>
<rect x="489.0" y="204.0" width="7" height="7" rx="1" fill="#C0A850" stroke="#A08830" stroke-width="0.4"/>
<rect x="490.0" y="205.0" width="5" height="2" rx="0.5" fill="#E8D878" opacity="0.5"/>
<rect x="515.0" y="204.0" width="7" height="7" rx="1" fill="#C0A850" stroke="#A08830" stroke-width="0.4"/>
<rect x="516.0" y="205.0" width="5" height="2" rx="0.5" fill="#E8D878" opacity="0.5"/>
<rect x="489.0" y="230.0" width="7" height="7" rx="1" fill="#C0A850" stroke="#A08830" stroke-width="0.4"/>
<rect x="490.0" y="231.0" width="5" height="2" rx="0.5" fill="#E8D878" opacity="0.5"/>
<rect x="515.0" y="230.0" width="7" height="7" rx="1" fill="#C0A850" stroke="#A08830" stroke-width="0.4"/>
<rect x="516.0" y="231.0" width="5" height="2" rx="0.5" fill="#E8D878" opacity="0.5"/>
<rect x="489.0" y="256.0" width="7" height="7" rx="1" fill="#C0A850" stroke="#A08830" stroke-width="0.4"/>
<rect x="490.0" y="257.0" width="5" height="2" rx="0.5" fill="#E8D878" opacity="0.5"/>
<rect x="515.0" y="256.0" width="7" height="7" rx="1" fill="#C0A850" stroke="#A08830" stroke-width="0.4"/>
<rect x="516.0" y="257.0" width="5" height="2" rx="0.5" fill="#E8D878" opacity="0.5"/>
<rect x="489.0" y="282.0" width="7" height="7" rx="1" fill="#C0A850" stroke="#A08830" stroke-width="0.4"/>
<rect x="490.0" y="283.0" width="5" height="2" rx="0.5" fill="#E8D878" opacity="0.5"/>
<rect x="515.0" y="282.0" width="7" height="7" rx="1" fill="#C0A850" stroke="#A08830" stroke-width="0.4"/>
<rect x="516.0" y="283.0" width="5" height="2" rx="0.5" fill="#E8D878" opacity="0.5"/>
<rect x="489.0" y="308.0" width="7" height="7" rx="1" fill="#C0A850" stroke="#A08830" stroke-width="0.4"/>
<rect x="490.0" y="309.0" width="5" height="2" rx="0.5" fill="#E8D878" opacity="0.5"/>
<rect x="515.0" y="308.0" width="7" height="7" rx="1" fill="#C0A850" stroke="#A08830" stroke-width="0.4"/>
<rect x="516.0" y="309.0" width="5" height="2" rx="0.5" fill="#E8D878" opacity="0.5"/>
<rect x="489.0" y="334.0" width="7" height="7" rx="1" fill="#C0A850" stroke="#A08830" stroke-width="0.4"/>
<rect x="490.0" y="335.0" width="5" height="2" rx="0.5" fill="#E8D878" opacity="0.5"/>
<rect x="515.0" y="334.0" width="7" height="7" rx="1" fill="#C0A850" stroke="#A08830" stroke-width="0.4"/>
<rect x="516.0" y="335.0" width="5" height="2" rx="0.5" fill="#E8D878" opacity="0.5"/>
<rect x="489.0" y="360.0" width="7" height="7" rx="1" fill="#C0A850" stroke="#A08830" stroke-width="0.4"/>
<rect x="490.0" y="361.0" width="5" height="2" rx="0.5" fill="#E8D878" opacity="0.5"/>
<rect x="515.0" y="360.0" width="7" height="7" rx="1" fill="#C0A850" stroke="#A08830" stroke-width="0.4"/>
<rect x="516.0" y="361.0" width="5" height="2" rx="0.5" fill="#E8D878" opacity="0.5"/>
<rect x="489.0" y="386.0" width="7" height="7" rx="1" fill="#C0A850" stroke="#A08830" stroke-width="0.4"/>
<rect x="490.0" y="387.0" width="5" height="2" rx="0.5" fill="#E8D878" opacity="0.5"/>
<rect x="515.0" y="386.0" width="7" height="7" rx="1" fill="#C0A850" stroke="#A08830" stroke-width="0.4"/>
<rect x="516.0" y="387.0" width="5" height="2" rx="0.5" fill="#E8D878" opacity="0.5"/>
<rect x="489.0" y="412.0" width="7" height="7" rx="1" fill="#C0A850" stroke="#A08830" stroke-width="0.4"/>
<rect x="490.0" y="413.0" width="5" height="2" rx="0.5" fill="#E8D878" opacity="0.5"/>
<rect x="515.0" y="412.0" width="7" height="7" rx="1" fill="#C0A850" stroke="#A08830" stroke-width="0.4"/>
<rect x="516.0" y="413.0" width="5" height="2" rx="0.5" fill="#E8D878" opacity="0.5"/>
<rect x="489.0" y="438.0" width="7" height="7" rx="1" fill="#C0A850" stroke="#A08830" stroke-width="0.4"/>
<rect x="490.0" y="439.0" width="5" height="2" rx="0.5" fill="#E8D878" opacity="0.5"/>
<rect x="515.0" y="438.0" width="7" height="7" rx="1" fill="#C0A850" stroke="#A08830" stroke-width="0.4"/>
<rect x="516.0" y="439.0" width="5" height="2" rx="0.5" fill="#E8D878" opacity="0.5"/>
<rect x="489.0" y="464.0" width="7" height="7" rx="1" fill="#C0A850" stroke="#A08830" stroke-width="0.4"/>
<rect x="490.0" y="465.0" width="5" height="2" rx="0.5" fill="#E8D878" opacity="0.5"/>
<rect x="515.0" y="464.0" width="7" height="7" rx="1" fill="#C0A850" stroke="#A08830" stroke-width="0.4"/>
<rect x="516.0" y="465.0" width="5" height="2" rx="0.5" fill="#E8D878" opacity="0.5"/>
<rect x="489.0" y="490.0" width="7" height="7" rx="1" fill="#C0A850" stroke="#A08830" stroke-width="0.4"/>
<rect x="490.0" y="491.0" width="5" height="2" rx="0.5" fill="#E8D878" opacity="0.5"/>
<rect x="515.0" y="490.0" width="7" height="7" rx="1" fill="#C0A850" stroke="#A08830" stroke-width="0.4"/>
<rect x="516.0" y="491.0" width="5" height="2" rx="0.5" fill="#E8D878" opacity="0.5"/>
<rect x="489.0" y="516.0" width="7" height="7" rx="1" fill="#C0A850" stroke="#A08830" stroke-width="0.4"/>
<rect x="490.0" y="517.0" width="5" height="2" rx="0.5" fill="#E8D878" opacity="0.5"/>
<rect x="515.0" y="516.0" width="7" height="7" rx="1" fill="#C0A850" stroke="#A08830" stroke-width="0.4"/>
<rect x="516.0" y="517.0" width="5" height="2" rx="0.5" fill="#E8D878" opacity="0.5"/>
<rect x="915.0" y="192" width="39.0" height="342" rx="2" fill="#1A1A1A" stroke="#333" stroke-width="0.5"/>
<rect x="918.0" y="204.0" width="7" height="7" rx="1" fill="#C0A850" stroke="#A08830" stroke-width="0.4"/>
<rect x="919.0" y="205.0" width="5" height="2" rx="0.5" fill="#E8D878" opacity="0.5"/>
<rect x="944.0" y="204.0" width="7" height="7" rx="1" fill="#C0A850" stroke="#A08830" stroke-width="0.4"/>
<rect x="945.0" y="205.0" width="5" height="2" rx="0.5" fill="#E8D878" opacity="0.5"/>
<rect x="918.0" y="230.0" width="7" height="7" rx="1" fill="#C0A850" stroke="#A08830" stroke-width="0.4"/>
<rect x="919.0" y="231.0" width="5" height="2" rx="0.5" fill="#E8D878" opacity="0.5"/>
<rect x="944.0" y="230.0" width="7" height="7" rx="1" fill="#C0A850" stroke="#A08830" stroke-width="0.4"/>
<rect x="945.0" y="231.0" width="5" height="2" rx="0.5" fill="#E8D878" opacity="0.5"/>
<rect x="918.0" y="256.0" width="7" height="7" rx="1" fill="#C0A850" stroke="#A08830" stroke-width="0.4"/>
<rect x="919.0" y="257.0" width="5" height="2" rx="0.5" fill="#E8D878" opacity="0.5"/>
<rect x="944.0" y="256.0" width="7" height="7" rx="1" fill="#C0A850" stroke="#A08830" stroke-width="0.4"/>
<rect x="945.0" y="257.0" width="5" height="2" rx="0.5" fill="#E8D878" opacity="0.5"/>
<rect x="918.0" y="282.0" width="7" height="7" rx="1" fill="#C0A850" stroke="#A08830" stroke-width="0.4"/>
<rect x="919.0" y="283.0" width="5" height="2" rx="0.5" fill="#E8D878" opacity="0.5"/>
<rect x="944.0" y="282.0" width="7" height="7" rx="1" fill="#C0A850" stroke="#A08830" stroke-width="0.4"/>
<rect x="945.0" y="283.0" width="5" height="2" rx="0.5" fill="#E8D878" opacity="0.5"/>
<rect x="918.0" y="308.0" width="7" height="7" rx="1" fill="#C0A850" stroke="#A08830" stroke-width="0.4"/>
<rect x="919.0" y="309.0" width="5" height="2" rx="0.5" fill="#E8D878" opacity="0.5"/>
<rect x="944.0" y="308.0" width="7" height="7" rx="1" fill="#C0A850" stroke="#A08830" stroke-width="0.4"/>
<rect x="945.0" y="309.0" width="5" height="2" rx="0.5" fill="#E8D878" opacity="0.5"/>
<rect x="918.0" y="334.0" width="7" height="7" rx="1" fill="#C0A850" stroke="#A08830" stroke-width="0.4"/>
<rect x="919.0" y="335.0" width="5" height="2" rx="0.5" fill="#E8D878" opacity="0.5"/>
<rect x="944.0" y="334.0" width="7" height="7" rx="1" fill="#C0A850" stroke="#A08830" stroke-width="0.4"/>
<rect x="945.0" y="335.0" width="5" height="2" rx="0.5" fill="#E8D878" opacity="0.5"/>
<rect x="918.0" y="360.0" width="7" height="7" rx="1" fill="#C0A850" stroke="#A08830" stroke-width="0.4"/>
<rect x="919.0" y="361.0" width="5" height="2" rx="0.5" fill="#E8D878" opacity="0.5"/>
<rect x="944.0" y="360.0" width="7" height="7" rx="1" fill="#C0A850" stroke="#A08830" stroke-width="0.4"/>
<rect x="945.0" y="361.0" width="5" height="2" rx="0.5" fill="#E8D878" opacity="0.5"/>
<rect x="918.0" y="386.0" width="7" height="7" rx="1" fill="#C0A850" stroke="#A08830" stroke-width="0.4"/>
<rect x="919.0" y="387.0" width="5" height="2" rx="0.5" fill="#E8D878" opacity="0.5"/>
<rect x="944.0" y="386.0" width="7" height="7" rx="1" fill="#C0A850" stroke="#A08830" stroke-width="0.4"/>
<rect x="945.0" y="387.0" width="5" height="2" rx="0.5" fill="#E8D878" opacity="0.5"/>
<rect x="918.0" y="412.0" width="7" height="7" rx="1" fill="#C0A850" stroke="#A08830" stroke-width="0.4"/>
<rect x="919.0" y="413.0" width="5" height="2" rx="0.5" fill="#E8D878" opacity="0.5"/>
<rect x="944.0" y="412.0" width="7" height="7" rx="1" fill="#C0A850" stroke="#A08830" stroke-width="0.4"/>
<rect x="945.0" y="413.0" width="5" height="2" rx="0.5" fill="#E8D878" opacity="0.5"/>
<rect x="918.0" y="438.0" width="7" height="7" rx="1" fill="#C0A850" stroke="#A08830" stroke-width="0.4"/>
<rect x="919.0" y="439.0" width="5" height="2" rx="0.5" fill="#E8D878" opacity="0.5"/>
<rect x="944.0" y="438.0" width="7" height="7" rx="1" fill="#C0A850" stroke="#A08830" stroke-width="0.4"/>
<rect x="945.0" y="439.0" width="5" height="2" rx="0.5" fill="#E8D878" opacity="0.5"/>
<rect x="918.0" y="464.0" width="7" height="7" rx="1" fill="#C0A850" stroke="#A08830" stroke-width="0.4"/>
<rect x="919.0" y="465.0" width="5" height="2" rx="0.5" fill="#E8D878" opacity="0.5"/>
<rect x="944.0" y="464.0" width="7" height="7" rx="1" fill="#C0A850" stroke="#A08830" stroke-width="0.4"/>
<rect x="945.0" y="465.0" width="5" height="2" rx="0.5" fill="#E8D878" opacity="0.5"/>
<rect x="918.0" y="490.0" width="7" height="7" rx="1" fill="#C0A850" stroke="#A08830" stroke-width="0.4"/>
<rect x="919.0" y="491.0" width="5" height="2" rx="0.5" fill="#E8D878" opacity="0.5"/>
<rect x="944.0" y="490.0" width="7" height="7" rx="1" fill="#C0A850" stroke="#A08830" stroke-width="0.4"/>
<rect x="945.0" y="491.0" width="5" height="2" rx="0.5" fill="#E8D878" opacity="0.5"/>
<rect x="918.0" y="516.0" width="7" height="7" rx="1" fill="#C0A850" stroke="#A08830" stroke-width="0.4"/>
<rect x="919.0" y="517.0" width="5" height="2" rx="0.5" fill="#E8D878" opacity="0.5"/>
<rect x="944.0" y="516.0" width="7" height="7" rx="1" fill="#C0A850" stroke="#A08830" stroke-width="0.4"/>
<rect x="945.0" y="517.0" width="5" height="2" rx="0.5" fill="#E8D878" opacity="0.5"/>
<text x="515" y="537" font-size="7" fill="#999">Speaker</text>
<text x="925" y="537" text-anchor="end" font-size="7" fill="#999">MIC</text>
<rect x="894" y="60" width="36" height="20" rx="1.5" fill="#D4C44E" stroke="#B0A030" stroke-width="0.5"/>
<text x="912" y="96" text-anchor="middle" font-size="5" fill="#999">USER</text>
<rect x="843" y="60" width="36" height="20" rx="1.5" fill="#D4C44E" stroke="#B0A030" stroke-width="0.5"/>
<text x="861" y="96" text-anchor="middle" font-size="5" fill="#999">BOOT</text>
<rect x="792" y="60" width="36" height="20" rx="1.5" fill="#D4C44E" stroke="#B0A030" stroke-width="0.5"/>
<text x="810" y="96" text-anchor="middle" font-size="5" fill="#999">RESET</text>
<rect x="140" y="196" width="94" height="23" rx="4" fill="url(#gDC3545)" stroke="#8f222c" stroke-width="0.7" filter="url(#pshadow)"/>
<text x="187.0" y="211.0" text-anchor="middle" font-size="9.5" font-weight="bold" fill="#FFF">3V3</text>
<line x1="234" y1="207.5" x2="240" y2="207.5" stroke="#DC3545" stroke-width="2" stroke-linecap="round"/>
<rect x="240" y="196" width="94" height="23" rx="4" fill="url(#gDC3545)" stroke="#8f222c" stroke-width="0.7" filter="url(#pshadow)"/>
<text x="287.0" y="211.0" text-anchor="middle" font-size="9.5" font-weight="bold" fill="#FFF">5V</text>
<line x1="334" y1="207.5" x2="467" y2="207.5" stroke="#DC3545" stroke-width="2" stroke-linecap="round"/>
<circle cx="467" cy="207.5" r="3" fill="#a52733" stroke="#E0C060" stroke-width="0.5"/>
<rect x="140" y="222" width="94" height="23" rx="4" fill="url(#g5CB85C)" stroke="#3b773b" stroke-width="0.7" filter="url(#pshadow)"/>
<text x="187.0" y="237.0" text-anchor="middle" font-size="9.5" font-weight="bold" fill="#FFF">GPIO7</text>
<line x1="234" y1="233.5" x2="240" y2="233.5" stroke="#5CB85C" stroke-width="2" stroke-linecap="round"/>
<rect x="102.5" y="226.0" width="31.5" height="15" rx="3" fill="url(#g5CB85C)" stroke="#376e37" stroke-width="0.5"/>
<text x="118.25" y="237.0" text-anchor="middle" font-size="9" font-weight="600" fill="#FFF">SDA</text>
<rect x="-3.5" y="226.0" width="103.0" height="15" rx="3" fill="url(#gE8883E)" stroke="#8b5125" stroke-width="0.5"/>
<text x="48.0" y="237.0" text-anchor="middle" font-size="9" font-weight="600" fill="#FFF">TOUCH_CHANNEL5</text>
<rect x="240" y="222" width="94" height="23" rx="4" fill="url(#gDC3545)" stroke="#8f222c" stroke-width="0.7" filter="url(#pshadow)"/>
<text x="287.0" y="237.0" text-anchor="middle" font-size="9.5" font-weight="bold" fill="#FFF">5V</text>
<line x1="334" y1="233.5" x2="467" y2="233.5" stroke="#DC3545" stroke-width="2" stroke-linecap="round"/>
<circle cx="467" cy="233.5" r="3" fill="#a52733" stroke="#E0C060" stroke-width="0.5"/>
<rect x="140" y="248" width="94" height="23" rx="4" fill="url(#g5CB85C)" stroke="#3b773b" stroke-width="0.7" filter="url(#pshadow)"/>
<text x="187.0" y="263.0" text-anchor="middle" font-size="9.5" font-weight="bold" fill="#FFF">GPIO8</text>
<line x1="234" y1="259.5" x2="240" y2="259.5" stroke="#5CB85C" stroke-width="2" stroke-linecap="round"/>
<rect x="102.5" y="252.0" width="31.5" height="15" rx="3" fill="url(#g5CB85C)" stroke="#376e37" stroke-width="0.5"/>
<text x="118.25" y="263.0" text-anchor="middle" font-size="9" font-weight="600" fill="#FFF">SCL</text>
<rect x="-3.5" y="252.0" width="103.0" height="15" rx="3" fill="url(#gE8883E)" stroke="#8b5125" stroke-width="0.5"/>
<text x="48.0" y="263.0" text-anchor="middle" font-size="9" font-weight="600" fill="#FFF">TOUCH_CHANNEL6</text>
<rect x="240" y="248" width="94" height="23" rx="4" fill="url(#g343A40)" stroke="#212529" stroke-width="0.7" filter="url(#pshadow)"/>
<text x="287.0" y="263.0" text-anchor="middle" font-size="9.5" font-weight="bold" fill="#FFF">GND</text>
<line x1="334" y1="259.5" x2="467" y2="259.5" stroke="#343A40" stroke-width="2" stroke-linecap="round"/>
<circle cx="467" cy="259.5" r="3" fill="#272b30" stroke="#E0C060" stroke-width="0.5"/>
<rect x="140" y="274" width="94" height="23" rx="4" fill="url(#gE74C8A)" stroke="#963159" stroke-width="0.7" filter="url(#pshadow)"/>
<text x="187.0" y="289.0" text-anchor="middle" font-size="9.5" font-weight="bold" fill="#FFF">SPI_CLK</text>
<line x1="234" y1="285.5" x2="240" y2="285.5" stroke="#E74C8A" stroke-width="2" stroke-linecap="round"/>
<rect x="240" y="274" width="94" height="23" rx="4" fill="url(#g5B9BD5)" stroke="#3b648a" stroke-width="0.7" filter="url(#pshadow)"/>
<text x="287.0" y="289.0" text-anchor="middle" font-size="9.5" font-weight="bold" fill="#FFF">GPIO37</text>
<line x1="334" y1="285.5" x2="467" y2="285.5" stroke="#5B9BD5" stroke-width="2" stroke-linecap="round"/>
<circle cx="467" cy="285.5" r="3" fill="#44749f" stroke="#E0C060" stroke-width="0.5"/>
<rect x="140" y="300" width="94" height="23" rx="4" fill="url(#g343A40)" stroke="#212529" stroke-width="0.7" filter="url(#pshadow)"/>
<text x="187.0" y="315.0" text-anchor="middle" font-size="9.5" font-weight="bold" fill="#FFF">GND</text>
<line x1="234" y1="311.5" x2="240" y2="311.5" stroke="#343A40" stroke-width="2" stroke-linecap="round"/>
<rect x="240" y="300" width="94" height="23" rx="4" fill="url(#g5B9BD5)" stroke="#3b648a" stroke-width="0.7" filter="url(#pshadow)"/>
<text x="287.0" y="315.0" text-anchor="middle" font-size="9.5" font-weight="bold" fill="#FFF">GPIO38</text>
<line x1="334" y1="311.5" x2="467" y2="311.5" stroke="#5B9BD5" stroke-width="2" stroke-linecap="round"/>
<circle cx="467" cy="311.5" r="3" fill="#44749f" stroke="#E0C060" stroke-width="0.5"/>
<rect x="140" y="326" width="94" height="23" rx="4" fill="url(#gE74C8A)" stroke="#963159" stroke-width="0.7" filter="url(#pshadow)"/>
<text x="187.0" y="341.0" text-anchor="middle" font-size="9.5" font-weight="bold" fill="#FFF">SPI_MOSI</text>
<line x1="234" y1="337.5" x2="240" y2="337.5" stroke="#E74C8A" stroke-width="2" stroke-linecap="round"/>
<rect x="240" y="326" width="94" height="23" rx="4" fill="url(#gE74C8A)" stroke="#963159" stroke-width="0.7" filter="url(#pshadow)"/>
<text x="287.0" y="341.0" text-anchor="middle" font-size="9.5" font-weight="bold" fill="#FFF">SPI_MISO</text>
<line x1="334" y1="337.5" x2="467" y2="337.5" stroke="#E74C8A" stroke-width="2" stroke-linecap="round"/>
<circle cx="467" cy="337.5" r="3" fill="#ad3967" stroke="#E0C060" stroke-width="0.5"/>
<rect x="140" y="352" width="94" height="23" rx="4" fill="url(#gE74C8A)" stroke="#963159" stroke-width="0.7" filter="url(#pshadow)"/>
<text x="187.0" y="367.0" text-anchor="middle" font-size="9.5" font-weight="bold" fill="#FFF">SPI_CS</text>
<line x1="234" y1="363.5" x2="240" y2="363.5" stroke="#E74C8A" stroke-width="2" stroke-linecap="round"/>
<rect x="240" y="352" width="94" height="23" rx="4" fill="url(#g343A40)" stroke="#212529" stroke-width="0.7" filter="url(#pshadow)"/>
<text x="287.0" y="367.0" text-anchor="middle" font-size="9.5" font-weight="bold" fill="#FFF">GND</text>
<line x1="334" y1="363.5" x2="467" y2="363.5" stroke="#343A40" stroke-width="2" stroke-linecap="round"/>
<circle cx="467" cy="363.5" r="3" fill="#272b30" stroke="#E0C060" stroke-width="0.5"/>
<rect x="140" y="378" width="94" height="23" rx="4" fill="url(#gE74C8A)" stroke="#963159" stroke-width="0.7" filter="url(#pshadow)"/>
<text x="187.0" y="393.0" text-anchor="middle" font-size="9.5" font-weight="bold" fill="#FFF">ICE40_CRESET</text>
<line x1="234" y1="389.5" x2="240" y2="389.5" stroke="#E74C8A" stroke-width="2" stroke-linecap="round"/>
<rect x="240" y="378" width="94" height="23" rx="4" fill="url(#gE74C8A)" stroke="#963159" stroke-width="0.7" filter="url(#pshadow)"/>
<text x="287.0" y="393.0" text-anchor="middle" font-size="9.5" font-weight="bold" fill="#FFF">ICE40_CDONE</text>
<line x1="334" y1="389.5" x2="467" y2="389.5" stroke="#E74C8A" stroke-width="2" stroke-linecap="round"/>
<circle cx="467" cy="389.5" r="3" fill="#ad3967" stroke="#E0C060" stroke-width="0.5"/>
<rect x="140" y="404" width="94" height="23" rx="4" fill="url(#gDC3545)" stroke="#8f222c" stroke-width="0.7" filter="url(#pshadow)"/>
<text x="187.0" y="419.0" text-anchor="middle" font-size="9.5" font-weight="bold" fill="#FFF">3V3</text>
<line x1="234" y1="415.5" x2="240" y2="415.5" stroke="#DC3545" stroke-width="2" stroke-linecap="round"/>
<rect x="240" y="404" width="94" height="23" rx="4" fill="url(#gC9B93B)" stroke="#827826" stroke-width="0.7" filter="url(#pshadow)"/>
<text x="287.0" y="419.0" text-anchor="middle" font-size="9.5" font-weight="bold" fill="#FFF">GPIO24</text>
<line x1="334" y1="415.5" x2="467" y2="415.5" stroke="#C9B93B" stroke-width="2" stroke-linecap="round"/>
<circle cx="467" cy="415.5" r="3" fill="#968a2c" stroke="#E0C060" stroke-width="0.5"/>
<rect x="140" y="430" width="94" height="23" rx="4" fill="url(#gC9B93B)" stroke="#827826" stroke-width="0.7" filter="url(#pshadow)"/>
<text x="187.0" y="445.0" text-anchor="middle" font-size="9.5" font-weight="bold" fill="#FFF">GPIO25</text>
<line x1="234" y1="441.5" x2="240" y2="441.5" stroke="#C9B93B" stroke-width="2" stroke-linecap="round"/>
<rect x="63.5" y="434.0" width="70.5" height="15" rx="3" fill="url(#gC9B93B)" stroke="#786f23" stroke-width="0.5"/>
<text x="98.75" y="445.0" text-anchor="middle" font-size="9" font-weight="600" fill="#FFF">USB1P1_P0</text>
<rect x="240" y="430" width="94" height="23" rx="4" fill="url(#g343A40)" stroke="#212529" stroke-width="0.7" filter="url(#pshadow)"/>
<text x="287.0" y="445.0" text-anchor="middle" font-size="9.5" font-weight="bold" fill="#FFF">GND</text>
<line x1="334" y1="441.5" x2="467" y2="441.5" stroke="#343A40" stroke-width="2" stroke-linecap="round"/>
<circle cx="467" cy="441.5" r="3" fill="#272b30" stroke="#E0C060" stroke-width="0.5"/>
<rect x="140" y="456" width="94" height="23" rx="4" fill="url(#gC9B93B)" stroke="#827826" stroke-width="0.7" filter="url(#pshadow)"/>
<text x="187.0" y="471.0" text-anchor="middle" font-size="9.5" font-weight="bold" fill="#FFF">GPIO26</text>
<line x1="234" y1="467.5" x2="240" y2="467.5" stroke="#C9B93B" stroke-width="2" stroke-linecap="round"/>
<rect x="63.5" y="460.0" width="70.5" height="15" rx="3" fill="url(#gC9B93B)" stroke="#786f23" stroke-width="0.5"/>
<text x="98.75" y="471.0" text-anchor="middle" font-size="9" font-weight="600" fill="#FFF">USB1P1_N1</text>
<rect x="240" y="456" width="94" height="23" rx="4" fill="url(#gC9B93B)" stroke="#827826" stroke-width="0.7" filter="url(#pshadow)"/>
<text x="287.0" y="471.0" text-anchor="middle" font-size="9.5" font-weight="bold" fill="#FFF">GPIO27</text>
<line x1="334" y1="467.5" x2="467" y2="467.5" stroke="#C9B93B" stroke-width="2" stroke-linecap="round"/>
<circle cx="467" cy="467.5" r="3" fill="#968a2c" stroke="#E0C060" stroke-width="0.5"/>
<rect x="140" y="482" width="94" height="23" rx="4" fill="url(#g5CB85C)" stroke="#3b773b" stroke-width="0.7" filter="url(#pshadow)"/>
<text x="187.0" y="497.0" text-anchor="middle" font-size="9.5" font-weight="bold" fill="#FFF">GPIO32</text>
<line x1="234" y1="493.5" x2="240" y2="493.5" stroke="#5CB85C" stroke-width="2" stroke-linecap="round"/>
<rect x="240" y="482" width="94" height="23" rx="4" fill="url(#g5CB85C)" stroke="#3b773b" stroke-width="0.7" filter="url(#pshadow)"/>
<text x="287.0" y="497.0" text-anchor="middle" font-size="9.5" font-weight="bold" fill="#FFF">GPIO33</text>
<line x1="334" y1="493.5" x2="467" y2="493.5" stroke="#5CB85C" stroke-width="2" stroke-linecap="round"/>
<circle cx="467" cy="493.5" r="3" fill="#458a45" stroke="#E0C060" stroke-width="0.5"/>
<rect x="140" y="508" width="94" height="23" rx="4" fill="url(#g343A40)" stroke="#212529" stroke-width="0.7" filter="url(#pshadow)"/>
<text x="187.0" y="523.0" text-anchor="middle" font-size="9.5" font-weight="bold" fill="#FFF">GND</text>
<line x1="234" y1="519.5" x2="240" y2="519.5" stroke="#343A40" stroke-width="2" stroke-linecap="round"/>
<rect x="240" y="508" width="94" height="23" rx="4" fill="url(#g5CB85C)" stroke="#3b773b" stroke-width="0.7" filter="url(#pshadow)"/>
<text x="287.0" y="523.0" text-anchor="middle" font-size="9.5" font-weight="bold" fill="#FFF">GPIO36</text>
<line x1="334" y1="519.5" x2="467" y2="519.5" stroke="#5CB85C" stroke-width="2" stroke-linecap="round"/>
<circle cx="467" cy="519.5" r="3" fill="#458a45" stroke="#E0C060" stroke-width="0.5"/>
<rect x="1106" y="196" width="94" height="23" rx="4" fill="url(#gDC3545)" stroke="#8f222c" stroke-width="0.7" filter="url(#pshadow)"/>
<text x="1153.0" y="211.0" text-anchor="middle" font-size="9.5" font-weight="bold" fill="#FFF">5V</text>
<line x1="973" y1="207.5" x2="1106" y2="207.5" stroke="#DC3545" stroke-width="2" stroke-linecap="round"/>
<circle cx="973" cy="207.5" r="3" fill="#a52733" stroke="#E0C060" stroke-width="0.5"/>
<rect x="1206" y="196" width="94" height="23" rx="4" fill="url(#gDC3545)" stroke="#8f222c" stroke-width="0.7" filter="url(#pshadow)"/>
<text x="1253.0" y="211.0" text-anchor="middle" font-size="9.5" font-weight="bold" fill="#FFF">ESP_LDO_VO4</text>
<line x1="1200" y1="207.5" x2="1206" y2="207.5" stroke="#DC3545" stroke-width="2" stroke-linecap="round"/>
<rect x="1106" y="222" width="94" height="23" rx="4" fill="url(#g343A40)" stroke="#212529" stroke-width="0.7" filter="url(#pshadow)"/>
<text x="1153.0" y="237.0" text-anchor="middle" font-size="9.5" font-weight="bold" fill="#FFF">GND</text>
<line x1="973" y1="233.5" x2="1106" y2="233.5" stroke="#343A40" stroke-width="2" stroke-linecap="round"/>
<circle cx="973" cy="233.5" r="3" fill="#272b30" stroke="#E0C060" stroke-width="0.5"/>
<rect x="1206" y="222" width="94" height="23" rx="4" fill="url(#g343A40)" stroke="#212529" stroke-width="0.7" filter="url(#pshadow)"/>
<text x="1253.0" y="237.0" text-anchor="middle" font-size="9.5" font-weight="bold" fill="#FFF">GND</text>
<line x1="1200" y1="233.5" x2="1206" y2="233.5" stroke="#343A40" stroke-width="2" stroke-linecap="round"/>
<rect x="1106" y="248" width="94" height="23" rx="4" fill="url(#gDC3545)" stroke="#8f222c" stroke-width="0.7" filter="url(#pshadow)"/>
<text x="1153.0" y="263.0" text-anchor="middle" font-size="9.5" font-weight="bold" fill="#FFF">3V3</text>
<line x1="973" y1="259.5" x2="1106" y2="259.5" stroke="#DC3545" stroke-width="2" stroke-linecap="round"/>
<circle cx="973" cy="259.5" r="3" fill="#a52733" stroke="#E0C060" stroke-width="0.5"/>
<rect x="1206" y="248" width="94" height="23" rx="4" fill="url(#g7E8A7E)" stroke="#515951" stroke-width="0.7" filter="url(#pshadow)"/>
<text x="1253.0" y="263.0" text-anchor="middle" font-size="9.5" font-weight="bold" fill="#FFF">GPIO0</text>
<line x1="1200" y1="259.5" x2="1206" y2="259.5" stroke="#7E8A7E" stroke-width="2" stroke-linecap="round"/>
<rect x="1306" y="252.0" width="77.0" height="15" rx="3" fill="url(#g7E8A7E)" stroke="#4b524b" stroke-width="0.5"/>
<text x="1344.5" y="263.0" text-anchor="middle" font-size="9" font-weight="600" fill="#FFF">XTAL_32K_N</text>
<rect x="1106" y="274" width="94" height="23" rx="4" fill="url(#g343A40)" stroke="#212529" stroke-width="0.7" filter="url(#pshadow)"/>
<text x="1153.0" y="289.0" text-anchor="middle" font-size="9.5" font-weight="bold" fill="#FFF">GND</text>
<line x1="973" y1="285.5" x2="1106" y2="285.5" stroke="#343A40" stroke-width="2" stroke-linecap="round"/>
<circle cx="973" cy="285.5" r="3" fill="#272b30" stroke="#E0C060" stroke-width="0.5"/>
<rect x="1206" y="274" width="94" height="23" rx="4" fill="url(#g7E8A7E)" stroke="#515951" stroke-width="0.7" filter="url(#pshadow)"/>
<text x="1253.0" y="289.0" text-anchor="middle" font-size="9.5" font-weight="bold" fill="#FFF">GPIO1</text>
<line x1="1200" y1="285.5" x2="1206" y2="285.5" stroke="#7E8A7E" stroke-width="2" stroke-linecap="round"/>
<rect x="1306" y="278.0" width="77.0" height="15" rx="3" fill="url(#g7E8A7E)" stroke="#4b524b" stroke-width="0.5"/>
<text x="1344.5" y="289.0" text-anchor="middle" font-size="9" font-weight="600" fill="#FFF">XTAL_32K_P</text>
<rect x="1106" y="300" width="94" height="23" rx="4" fill="url(#gE8883E)" stroke="#965828" stroke-width="0.7" filter="url(#pshadow)"/>
<text x="1153.0" y="315.0" text-anchor="middle" font-size="9.5" font-weight="bold" fill="#FFF">GPIO3</text>
<line x1="973" y1="311.5" x2="1106" y2="311.5" stroke="#E8883E" stroke-width="2" stroke-linecap="round"/>
<circle cx="973" cy="311.5" r="3" fill="#ae662e" stroke="#E0C060" stroke-width="0.5"/>
<rect x="1206" y="300" width="94" height="23" rx="4" fill="url(#g343A40)" stroke="#212529" stroke-width="0.7" filter="url(#pshadow)"/>
<text x="1253.0" y="315.0" text-anchor="middle" font-size="9.5" font-weight="bold" fill="#FFF">GND</text>
<line x1="1200" y1="311.5" x2="1206" y2="311.5" stroke="#343A40" stroke-width="2" stroke-linecap="round"/>
<rect x="1106" y="326" width="94" height="23" rx="4" fill="url(#gE8883E)" stroke="#965828" stroke-width="0.7" filter="url(#pshadow)"/>
<text x="1153.0" y="341.0" text-anchor="middle" font-size="9.5" font-weight="bold" fill="#FFF">GPIO2</text>
<line x1="973" y1="337.5" x2="1106" y2="337.5" stroke="#E8883E" stroke-width="2" stroke-linecap="round"/>
<circle cx="973" cy="337.5" r="3" fill="#ae662e" stroke="#E0C060" stroke-width="0.5"/>
<rect x="1206" y="326" width="94" height="23" rx="4" fill="url(#gE8883E)" stroke="#965828" stroke-width="0.7" filter="url(#pshadow)"/>
<text x="1253.0" y="341.0" text-anchor="middle" font-size="9.5" font-weight="bold" fill="#FFF">GPIO6</text>
<line x1="1200" y1="337.5" x2="1206" y2="337.5" stroke="#E8883E" stroke-width="2" stroke-linecap="round"/>
<rect x="1306" y="330.0" width="103.0" height="15" rx="3" fill="url(#gE8883E)" stroke="#8b5125" stroke-width="0.5"/>
<text x="1357.5" y="341.0" text-anchor="middle" font-size="9" font-weight="600" fill="#FFF">TOUCH_CHANNEL4</text>
<rect x="1106" y="352" width="94" height="23" rx="4" fill="url(#gE74C8A)" stroke="#963159" stroke-width="0.7" filter="url(#pshadow)"/>
<text x="1153.0" y="367.0" text-anchor="middle" font-size="9.5" font-weight="bold" fill="#FFF">JTAG_SRST</text>
<line x1="973" y1="363.5" x2="1106" y2="363.5" stroke="#E74C8A" stroke-width="2" stroke-linecap="round"/>
<circle cx="973" cy="363.5" r="3" fill="#ad3967" stroke="#E0C060" stroke-width="0.5"/>
<rect x="1206" y="352" width="94" height="23" rx="4" fill="url(#gE74C8A)" stroke="#963159" stroke-width="0.7" filter="url(#pshadow)"/>
<text x="1253.0" y="367.0" text-anchor="middle" font-size="9.5" font-weight="bold" fill="#FFF">JTAG_TRST</text>
<line x1="1200" y1="363.5" x2="1206" y2="363.5" stroke="#E74C8A" stroke-width="2" stroke-linecap="round"/>
<rect x="1106" y="378" width="94" height="23" rx="4" fill="url(#gE74C8A)" stroke="#963159" stroke-width="0.7" filter="url(#pshadow)"/>
<text x="1153.0" y="393.0" text-anchor="middle" font-size="9.5" font-weight="bold" fill="#FFF">JTAG_TCK</text>
<line x1="973" y1="389.5" x2="1106" y2="389.5" stroke="#E74C8A" stroke-width="2" stroke-linecap="round"/>
<circle cx="973" cy="389.5" r="3" fill="#ad3967" stroke="#E0C060" stroke-width="0.5"/>
<rect x="1206" y="378" width="94" height="23" rx="4" fill="url(#gE74C8A)" stroke="#963159" stroke-width="0.7" filter="url(#pshadow)"/>
<text x="1253.0" y="393.0" text-anchor="middle" font-size="9.5" font-weight="bold" fill="#FFF">JTAG_TMS</text>
<line x1="1200" y1="389.5" x2="1206" y2="389.5" stroke="#E74C8A" stroke-width="2" stroke-linecap="round"/>
<rect x="1106" y="404" width="94" height="23" rx="4" fill="url(#gE74C8A)" stroke="#963159" stroke-width="0.7" filter="url(#pshadow)"/>
<text x="1153.0" y="419.0" text-anchor="middle" font-size="9.5" font-weight="bold" fill="#FFF">JTAG_TDI</text>
<line x1="973" y1="415.5" x2="1106" y2="415.5" stroke="#E74C8A" stroke-width="2" stroke-linecap="round"/>
<circle cx="973" cy="415.5" r="3" fill="#ad3967" stroke="#E0C060" stroke-width="0.5"/>
<rect x="1206" y="404" width="94" height="23" rx="4" fill="url(#g343A40)" stroke="#212529" stroke-width="0.7" filter="url(#pshadow)"/>
<text x="1253.0" y="419.0" text-anchor="middle" font-size="9.5" font-weight="bold" fill="#FFF">GND</text>
<line x1="1200" y1="415.5" x2="1206" y2="415.5" stroke="#343A40" stroke-width="2" stroke-linecap="round"/>
<rect x="1106" y="430" width="94" height="23" rx="4" fill="url(#gE74C8A)" stroke="#963159" stroke-width="0.7" filter="url(#pshadow)"/>
<text x="1153.0" y="445.0" text-anchor="middle" font-size="9.5" font-weight="bold" fill="#FFF">JTAG_TDO</text>
<line x1="973" y1="441.5" x2="1106" y2="441.5" stroke="#E74C8A" stroke-width="2" stroke-linecap="round"/>
<circle cx="973" cy="441.5" r="3" fill="#ad3967" stroke="#E0C060" stroke-width="0.5"/>
<rect x="1206" y="430" width="94" height="23" rx="4" fill="url(#gB07840)" stroke="#724e29" stroke-width="0.7" filter="url(#pshadow)"/>
<text x="1253.0" y="445.0" text-anchor="middle" font-size="9.5" font-weight="bold" fill="#FFF">C6_U0RXD</text>
<line x1="1200" y1="441.5" x2="1206" y2="441.5" stroke="#B07840" stroke-width="2" stroke-linecap="round"/>
<rect x="1106" y="456" width="94" height="23" rx="4" fill="url(#gB07840)" stroke="#724e29" stroke-width="0.7" filter="url(#pshadow)"/>
<text x="1153.0" y="471.0" text-anchor="middle" font-size="9.5" font-weight="bold" fill="#FFF">C6_IO12</text>
<line x1="973" y1="467.5" x2="1106" y2="467.5" stroke="#B07840" stroke-width="2" stroke-linecap="round"/>
<circle cx="973" cy="467.5" r="3" fill="#845a30" stroke="#E0C060" stroke-width="0.5"/>
<rect x="1206" y="456" width="94" height="23" rx="4" fill="url(#gB07840)" stroke="#724e29" stroke-width="0.7" filter="url(#pshadow)"/>
<text x="1253.0" y="471.0" text-anchor="middle" font-size="9.5" font-weight="bold" fill="#FFF">C6_U0TXD</text>
<line x1="1200" y1="467.5" x2="1206" y2="467.5" stroke="#B07840" stroke-width="2" stroke-linecap="round"/>
<rect x="1106" y="482" width="94" height="23" rx="4" fill="url(#gB07840)" stroke="#724e29" stroke-width="0.7" filter="url(#pshadow)"/>
<text x="1153.0" y="497.0" text-anchor="middle" font-size="9.5" font-weight="bold" fill="#FFF">C6_IO13</text>
<line x1="973" y1="493.5" x2="1106" y2="493.5" stroke="#B07840" stroke-width="2" stroke-linecap="round"/>
<circle cx="973" cy="493.5" r="3" fill="#845a30" stroke="#E0C060" stroke-width="0.5"/>
<rect x="1206" y="482" width="94" height="23" rx="4" fill="url(#gB07840)" stroke="#724e29" stroke-width="0.7" filter="url(#pshadow)"/>
<text x="1253.0" y="497.0" text-anchor="middle" font-size="9.5" font-weight="bold" fill="#FFF">C6_IO9</text>
<line x1="1200" y1="493.5" x2="1206" y2="493.5" stroke="#B07840" stroke-width="2" stroke-linecap="round"/>
<rect x="1106" y="508" width="94" height="23" rx="4" fill="url(#g343A40)" stroke="#212529" stroke-width="0.7" filter="url(#pshadow)"/>
<text x="1153.0" y="523.0" text-anchor="middle" font-size="9.5" font-weight="bold" fill="#FFF">GND</text>
<line x1="973" y1="519.5" x2="1106" y2="519.5" stroke="#343A40" stroke-width="2" stroke-linecap="round"/>
<circle cx="973" cy="519.5" r="3" fill="#272b30" stroke="#E0C060" stroke-width="0.5"/>
<rect x="1206" y="508" width="94" height="23" rx="4" fill="url(#g343A40)" stroke="#212529" stroke-width="0.7" filter="url(#pshadow)"/>
<text x="1253.0" y="523.0" text-anchor="middle" font-size="9.5" font-weight="bold" fill="#FFF">GND</text>
<line x1="1200" y1="519.5" x2="1206" y2="519.5" stroke="#343A40" stroke-width="2" stroke-linecap="round"/>
<rect x="363.75" y="278.0" width="70.5" height="15" rx="3" fill="url(#g5B9BD5)" stroke="#365d7f" stroke-width="0.5"/>
<text x="399.0" y="289.0" text-anchor="middle" font-size="9" font-weight="600" fill="#FFF">UART0_TXD</text>
<rect x="363.75" y="304.0" width="70.5" height="15" rx="3" fill="url(#g5B9BD5)" stroke="#365d7f" stroke-width="0.5"/>
<text x="399.0" y="315.0" text-anchor="middle" font-size="9" font-weight="600" fill="#FFF">UART0_RXD</text>
<rect x="363.75" y="408.0" width="70.5" height="15" rx="3" fill="url(#gC9B93B)" stroke="#786f23" stroke-width="0.5"/>
<text x="399.0" y="419.0" text-anchor="middle" font-size="9" font-weight="600" fill="#FFF">USB1P1_N0</text>
<rect x="363.75" y="460.0" width="70.5" height="15" rx="3" fill="url(#gC9B93B)" stroke="#786f23" stroke-width="0.5"/>
<text x="399.0" y="471.0" text-anchor="middle" font-size="9" font-weight="600" fill="#FFF">USB1P1_P1</text>
<rect x="989.5" y="304.0" width="103.0" height="15" rx="3" fill="url(#gE8883E)" stroke="#8b5125" stroke-width="0.5"/>
<text x="1041.0" y="315.0" text-anchor="middle" font-size="9" font-weight="600" fill="#FFF">TOUCH_CHANNEL1</text>
<rect x="989.5" y="330.0" width="103.0" height="15" rx="3" fill="url(#gE8883E)" stroke="#8b5125" stroke-width="0.5"/>
<text x="1041.0" y="341.0" text-anchor="middle" font-size="9" font-weight="600" fill="#FFF">TOUCH_CHANNEL0</text>
<rect x="30" y="566" width="1380" height="92" rx="8" fill="#F7F5F2" stroke="#E0DDD8" stroke-width="1"/>
<rect x="52.0" y="574" width="18" height="16" rx="3" fill="url(#gDC3545)" stroke="#8f222c" stroke-width="0.5"/>
<text x="76.0" y="586.5" font-size="11.5" fill="#444">Power</text>
<rect x="392.0" y="574" width="18" height="16" rx="3" fill="url(#g5CB85C)" stroke="#3b773b" stroke-width="0.5"/>
<text x="416.0" y="586.5" font-size="11.5" fill="#444">GPIO</text>
<rect x="732.0" y="574" width="18" height="16" rx="3" fill="url(#gE8883E)" stroke="#965828" stroke-width="0.5"/>
<text x="756.0" y="586.5" font-size="11.5" fill="#444">Touch Channel</text>
<rect x="1072.0" y="574" width="18" height="16" rx="3" fill="url(#g9B6DB5)" stroke="#644675" stroke-width="0.5"/>
<text x="1096.0" y="586.5" font-size="11.5" fill="#444">ADC Channel</text>
<rect x="52.0" y="600" width="18" height="16" rx="3" fill="url(#gC9B93B)" stroke="#827826" stroke-width="0.5"/>
<text x="76.0" y="612.5" font-size="11.5" fill="#444">USB</text>
<rect x="392.0" y="600" width="18" height="16" rx="3" fill="url(#g5B9BD5)" stroke="#3b648a" stroke-width="0.5"/>
<text x="416.0" y="612.5" font-size="11.5" fill="#444">UART</text>
<rect x="732.0" y="600" width="18" height="16" rx="3" fill="url(#g7E8A7E)" stroke="#515951" stroke-width="0.5"/>
<text x="756.0" y="612.5" font-size="11.5" fill="#444">RTC Clock source</text>
<rect x="1072.0" y="600" width="18" height="16" rx="3" fill="url(#gB07840)" stroke="#724e29" stroke-width="0.5"/>
<text x="1096.0" y="612.5" font-size="11.5" fill="#444">ESP32-C6 GPIO</text>
<rect x="52.0" y="626" width="18" height="16" rx="3" fill="url(#gE74C8A)" stroke="#963159" stroke-width="0.5"/>
<text x="76.0" y="638.5" font-size="11.5" fill="#444">Custom Assign</text>
</svg>