<svg xmlns="http://www.w3.org/2000/svg" viewBox="0 0 1440 642" font-family="'SF Mono', 'Cascadia Code', Consolas, monospace">
<defs>
<linearGradient id="bg" x1="0" y1="0" x2="0" y2="1">
  <stop offset="0%" stop-color="#FAFAFA"/>
  <stop offset="100%" stop-color="#F2F2F2"/>
</linearGradient>
<linearGradient id="board" x1="0" y1="0" x2="0" y2="1">
  <stop offset="0%" stop-color="#EDE6DC"/>
  <stop offset="100%" stop-color="#D8CFBF"/>
</linearGradient>
<filter id="bshadow" x="-3%" y="-2%" width="108%" height="108%">
  <feDropShadow dx="2" dy="3" stdDeviation="5" flood-color="#00000018"/>
</filter>
<filter id="pshadow" x="-4%" y="-8%" width="112%" height="125%">
  <feDropShadow dx="0.5" dy="1" stdDeviation="1" flood-color="#00000025"/>
</filter>
<pattern id="grid" width="10" height="10" patternUnits="userSpaceOnUse">
  <path d="M10 0L0 0 0 10" fill="none" stroke="#C8BFB0" stroke-width="0.25"/>
</pattern>
<linearGradient id="gDC3545" x1="0" y1="0" x2="0" y2="1">
  <stop offset="0%" stop-color="#e15360"/>
  <stop offset="100%" stop-color="#c12e3c"/>
</linearGradient>
<linearGradient id="g5B9BD5" x1="0" y1="0" x2="0" y2="1">
  <stop offset="0%" stop-color="#73aadb"/>
  <stop offset="100%" stop-color="#5088bb"/>
</linearGradient>
<linearGradient id="gE8883E" x1="0" y1="0" x2="0" y2="1">
  <stop offset="0%" stop-color="#eb995a"/>
  <stop offset="100%" stop-color="#cc7736"/>
</linearGradient>
<linearGradient id="g7E8A7E" x1="0" y1="0" x2="0" y2="1">
  <stop offset="0%" stop-color="#919b91"/>
  <stop offset="100%" stop-color="#6e796e"/>
</linearGradient>
<linearGradient id="g343A40" x1="0" y1="0" x2="0" y2="1">
  <stop offset="0%" stop-color="#52575c"/>
  <stop offset="100%" stop-color="#2d3338"/>
</linearGradient>
<linearGradient id="gB07840" x1="0" y1="0" x2="0" y2="1">
  <stop offset="0%" stop-color="#bb8c5c"/>
  <stop offset="100%" stop-color="#9a6938"/>
</linearGradient>
<linearGradient id="g9B6DB5" x1="0" y1="0" x2="0" y2="1">
  <stop offset="0%" stop-color="#aa82c0"/>
  <stop offset="100%" stop-color="#885f9f"/>
</linearGradient>
<linearGradient id="g5CB85C" x1="0" y1="0" x2="0" y2="1">
  <stop offset="0%" stop-color="#74c274"/>
  <stop offset="100%" stop-color="#50a150"/>
</linearGradient>
<linearGradient id="gE74C8A" x1="0" y1="0" x2="0" y2="1">
  <stop offset="0%" stop-color="#ea669b"/>
  <stop offset="100%" stop-color="#cb4279"/>
</linearGradient>
<linearGradient id="gC9B93B" x1="0" y1="0" x2="0" y2="1">
  <stop offset="0%" stop-color="#d1c358"/>
  <stop offset="100%" stop-color="#b0a233"/>
</linearGradient>
</defs>
<rect width="1440" height="642" fill="url(#bg)"/>
<rect x="464" y="40" width="512" height="512" rx="10" fill="url(#board)" stroke="#C4B8AA" stroke-width="2" filter="url(#bshadow)"/>
<rect x="464" y="40" width="512" height="512" rx="10" fill="url(#grid)" opacity="0.35"/>
<circle cx="489" cy="65" r="7" fill="#FFFFFF" stroke="#AAA" stroke-width="1.2"/>
<circle cx="489" cy="65" r="4" fill="none" stroke="#CCC" stroke-width="0.5"/>
<circle cx="951" cy="65" r="7" fill="#FFFFFF" stroke="#AAA" stroke-width="1.2"/>
<circle cx="951" cy="65" r="4" fill="none" stroke="#CCC" stroke-width="0.5"/>
<circle cx="489" cy="527" r="7" fill="#FFFFFF" stroke="#AAA" stroke-width="1.2"/>
<circle cx="489" cy="527" r="4" fill="none" stroke="#CCC" stroke-width="0.5"/>
<circle cx="951" cy="527" r="7" fill="#FFFFFF" stroke="#AAA" stroke-width="1.2"/>
<circle cx="951" cy="527" r="4" fill="none" stroke="#CCC" stroke-width="0.5"/>
<rect x="661.0" y="38" width="118" height="36" rx="4" fill="#B0B0B0" stroke="#888" stroke-width="1.2"/>
<rect x="665.0" y="42" width="110" height="28" rx="2.5" fill="#9A9A9A" stroke="#777" stroke-width="0.5"/>
<text x="720.0" y="59.0" text-anchor="middle" font-size="7.5" fill="#555">USB &amp; Power</text>
<text x="720.0" y="100" text-anchor="middle" font-size="13" font-weight="bold" fill="#444" letter-spacing="1.2">ESP32-P4-NANO</text>
<rect x="486.0" y="97" width="39.0" height="342" rx="2" fill="#1A1A1A" stroke="#333" stroke-width="0.5"/>
<rect x="489.0" y="109.0" width="7" height="7" rx="1" fill="#C0A850" stroke="#A08830" stroke-width="0.4"/>
<rect x="490.0" y="110.0" width="5" height="2" rx="0.5" fill="#E8D878" opacity="0.5"/>
<rect x="515.0" y="109.0" width="7" height="7" rx="1" fill="#C0A850" stroke="#A08830" stroke-width="0.4"/>
<rect x="516.0" y="110.0" width="5" height="2" rx="0.5" fill="#E8D878" opacity="0.5"/>
<rect x="489.0" y="135.0" width="7" height="7" rx="1" fill="#C0A850" stroke="#A08830" stroke-width="0.4"/>
<rect x="490.0" y="136.0" width="5" height="2" rx="0.5" fill="#E8D878" opacity="0.5"/>
<rect x="515.0" y="135.0" width="7" height="7" rx="1" fill="#C0A850" stroke="#A08830" stroke-width="0.4"/>
<rect x="516.0" y="136.0" width="5" height="2" rx="0.5" fill="#E8D878" opacity="0.5"/>
<rect x="489.0" y="161.0" width="7" height="7" rx="1" fill="#C0A850" stroke="#A08830" stroke-width="0.4"/>
<rect x="490.0" y="162.0" width="5" height="2" rx="0.5" fill="#E8D878" opacity="0.5"/>
<rect x="515.0" y="161.0" width="7" height="7" rx="1" fill="#C0A850" stroke="#A08830" stroke-width="0.4"/>
<rect x="516.0" y="162.0" width="5" height="2" rx="0.5" fill="#E8D878" opacity="0.5"/>
<rect x="489.0" y="187.0" width="7" height="7" rx="1" fill="#C0A850" stroke="#A08830" stroke-width="0.4"/>
<rect x="490.0" y="188.0" width="5" height="2" rx="0.5" fill="#E8D878" opacity="0.5"/>
<rect x="515.0" y="187.0" width="7" height="7" rx="1" fill="#C0A850" stroke="#A08830" stroke-width="0.4"/>
<rect x="516.0" y="188.0" width="5" height="2" rx="0.5" fill="#E8D878" opacity="0.5"/>
<rect x="489.0" y="213.0" width="7" height="7" rx="1" fill="#C0A850" stroke="#A08830" stroke-width="0.4"/>
<rect x="490.0" y="214.0" width="5" height="2" rx="0.5" fill="#E8D878" opacity="0.5"/>
<rect x="515.0" y="213.0" width="7" height="7" rx="1" fill="#C0A850" stroke="#A08830" stroke-width="0.4"/>
<rect x="516.0" y="214.0" width="5" height="2" rx="0.5" fill="#E8D878" opacity="0.5"/>
<rect x="489.0" y="239.0" width="7" height="7" rx="1" fill="#C0A850" stroke="#A08830" stroke-width="0.4"/>
<rect x="490.0" y="240.0" width="5" height="2" rx="0.5" fill="#E8D878" opacity="0.5"/>
<rect x="515.0" y="239.0" width="7" height="7" rx="1" fill="#C0A850" stroke="#A08830" stroke-width="0.4"/>
<rect x="516.0" y="240.0" width="5" height="2" rx="0.5" fill="#E8D878" opacity="0.5"/>
<rect x="489.0" y="265.0" width="7" height="7" rx="1" fill="#C0A850" stroke="#A08830" stroke-width="0.4"/>
<rect x="490.0" y="266.0" width="5" height="2" rx="0.5" fill="#E8D878" opacity="0.5"/>
<rect x="515.0" y="265.0" width="7" height="7" rx="1" fill="#C0A850" stroke="#A08830" stroke-width="0.4"/>
<rect x="516.0" y="266.0" width="5" height="2" rx="0.5" fill="#E8D878" opacity="0.5"/>
<rect x="489.0" y="291.0" width="7" height="7" rx="1" fill="#C0A850" stroke="#A08830" stroke-width="0.4"/>
<rect x="490.0" y="292.0" width="5" height="2" rx="0.5" fill="#E8D878" opacity="0.5"/>
<rect x="515.0" y="291.0" width="7" height="7" rx="1" fill="#C0A850" stroke="#A08830" stroke-width="0.4"/>
<rect x="516.0" y="292.0" width="5" height="2" rx="0.5" fill="#E8D878" opacity="0.5"/>
<rect x="489.0" y="317.0" width="7" height="7" rx="1" fill="#C0A850" stroke="#A08830" stroke-width="0.4"/>
<rect x="490.0" y="318.0" width="5" height="2" rx="0.5" fill="#E8D878" opacity="0.5"/>
<rect x="515.0" y="317.0" width="7" height="7" rx="1" fill="#C0A850" stroke="#A08830" stroke-width="0.4"/>
<rect x="516.0" y="318.0" width="5" height="2" rx="0.5" fill="#E8D878" opacity="0.5"/>
<rect x="489.0" y="343.0" width="7" height="7" rx="1" fill="#C0A850" stroke="#A08830" stroke-width="0.4"/>
<rect x="490.0" y="344.0" width="5" height="2" rx="0.5" fill="#E8D878" opacity="0.5"/>
<rect x="515.0" y="343.0" width="7" height="7" rx="1" fill="#C0A850" stroke="#A08830" stroke-width="0.4"/>
<rect x="516.0" y="344.0" width="5" height="2" rx="0.5" fill="#E8D878" opacity="0.5"/>
<rect x="489.0" y="369.0" width="7" height="7" rx="1" fill="#C0A850" stroke="#A08830" stroke-width="0.4"/>
<rect x="490.0" y="370.0" width="5" height="2" rx="0.5" fill="#E8D878" opacity="0.5"/>
<rect x="515.0" y="369.0" width="7" height="7" rx="1" fill="#C0A850" stroke="#A08830" stroke-width="0.4"/>
<rect x="516.0" y="370.0" width="5" height="2" rx="0.5" fill="#E8D878" opacity="0.5"/>
<rect x="489.0" y="395.0" width="7" height="7" rx="1" fill="#C0A850" stroke="#A08830" stroke-width="0.4"/>
<rect x="490.0" y="396.0" width="5" height="2" rx="0.5" fill="#E8D878" opacity="0.5"/>
<rect x="515.0" y="395.0" width="7" height="7" rx="1" fill="#C0A850" stroke="#A08830" stroke-width="0.4"/>
<rect x="516.0" y="396.0" width="5" height="2" rx="0.5" fill="#E8D878" opacity="0.5"/>
<rect x="489.0" y="421.0" width="7" height="7" rx="1" fill="#C0A850" stroke="#A08830" stroke-width="0.4"/>
<rect x="490.0" y="422.0" width="5" height="2" rx="0.5" fill="#E8D878" opacity="0.5"/>
<rect x="515.0" y="421.0" width="7" height="7" rx="1" fill="#C0A850" stroke="#A08830" stroke-width="0.4"/>
<rect x="516.0" y="422.0" width="5" height="2" rx="0.5" fill="#E8D878" opacity="0.5"/>
<rect x="915.0" y="97" width="39.0" height="342" rx="2" fill="#1A1A1A" stroke="#333" stroke-width="0.5"/>
<rect x="918.0" y="109.0" width="7" height="7" rx="1" fill="#C0A850" stroke="#A08830" stroke-width="0.4"/>
<rect x="919.0" y="110.0" width="5" height="2" rx="0.5" fill="#E8D878" opacity="0.5"/>
<rect x="944.0" y="109.0" width="7" height="7" rx="1" fill="#C0A850" stroke="#A08830" stroke-width="0.4"/>
<rect x="945.0" y="110.0" width="5" height="2" rx="0.5" fill="#E8D878" opacity="0.5"/>
<rect x="918.0" y="135.0" width="7" height="7" rx="1" fill="#C0A850" stroke="#A08830" stroke-width="0.4"/>
<rect x="919.0" y="136.0" width="5" height="2" rx="0.5" fill="#E8D878" opacity="0.5"/>
<rect x="944.0" y="135.0" width="7" height="7" rx="1" fill="#C0A850" stroke="#A08830" stroke-width="0.4"/>
<rect x="945.0" y="136.0" width="5" height="2" rx="0.5" fill="#E8D878" opacity="0.5"/>
<rect x="918.0" y="161.0" width="7" height="7" rx="1" fill="#C0A850" stroke="#A08830" stroke-width="0.4"/>
<rect x="919.0" y="162.0" width="5" height="2" rx="0.5" fill="#E8D878" opacity="0.5"/>
<rect x="944.0" y="161.0" width="7" height="7" rx="1" fill="#C0A850" stroke="#A08830" stroke-width="0.4"/>
<rect x="945.0" y="162.0" width="5" height="2" rx="0.5" fill="#E8D878" opacity="0.5"/>
<rect x="918.0" y="187.0" width="7" height="7" rx="1" fill="#C0A850" stroke="#A08830" stroke-width="0.4"/>
<rect x="919.0" y="188.0" width="5" height="2" rx="0.5" fill="#E8D878" opacity="0.5"/>
<rect x="944.0" y="187.0" width="7" height="7" rx="1" fill="#C0A850" stroke="#A08830" stroke-width="0.4"/>
<rect x="945.0" y="188.0" width="5" height="2" rx="0.5" fill="#E8D878" opacity="0.5"/>
<rect x="918.0" y="213.0" width="7" height="7" rx="1" fill="#C0A850" stroke="#A08830" stroke-width="0.4"/>
<rect x="919.0" y="214.0" width="5" height="2" rx="0.5" fill="#E8D878" opacity="0.5"/>
<rect x="944.0" y="213.0" width="7" height="7" rx="1" fill="#C0A850" stroke="#A08830" stroke-width="0.4"/>
<rect x="945.0" y="214.0" width="5" height="2" rx="0.5" fill="#E8D878" opacity="0.5"/>
<rect x="918.0" y="239.0" width="7" height="7" rx="1" fill="#C0A850" stroke="#A08830" stroke-width="0.4"/>
<rect x="919.0" y="240.0" width="5" height="2" rx="0.5" fill="#E8D878" opacity="0.5"/>
<rect x="944.0" y="239.0" width="7" height="7" rx="1" fill="#C0A850" stroke="#A08830" stroke-width="0.4"/>
<rect x="945.0" y="240.0" width="5" height="2" rx="0.5" fill="#E8D878" opacity="0.5"/>
<rect x="918.0" y="265.0" width="7" height="7" rx="1" fill="#C0A850" stroke="#A08830" stroke-width="0.4"/>
<rect x="919.0" y="266.0" width="5" height="2" rx="0.5" fill="#E8D878" opacity="0.5"/>
<rect x="944.0" y="265.0" width="7" height="7" rx="1" fill="#C0A850" stroke="#A08830" stroke-width="0.4"/>
<rect x="945.0" y="266.0" width="5" height="2" rx="0.5" fill="#E8D878" opacity="0.5"/>
<rect x="918.0" y="291.0" width="7" height="7" rx="1" fill="#C0A850" stroke="#A08830" stroke-width="0.4"/>
<rect x="919.0" y="292.0" width="5" height="2" rx="0.5" fill="#E8D878" opacity="0.5"/>
<rect x="944.0" y="291.0" width="7" height="7" rx="1" fill="#C0A850" stroke="#A08830" stroke-width="0.4"/>
<rect x="945.0" y="292.0" width="5" height="2" rx="0.5" fill="#E8D878" opacity="0.5"/>
<rect x="918.0" y="317.0" width="7" height="7" rx="1" fill="#C0A850" stroke="#A08830" stroke-width="0.4"/>
<rect x="919.0" y="318.0" width="5" height="2" rx="0.5" fill="#E8D878" opacity="0.5"/>
<rect x="944.0" y="317.0" width="7" height="7" rx="1" fill="#C0A850" stroke="#A08830" stroke-width="0.4"/>
<rect x="945.0" y="318.0" width="5" height="2" rx="0.5" fill="#E8D878" opacity="0.5"/>
<rect x="918.0" y="343.0" width="7" height="7" rx="1" fill="#C0A850" stroke="#A08830" stroke-width="0.4"/>
<rect x="919.0" y="344.0" width="5" height="2" rx="0.5" fill="#E8D878" opacity="0.5"/>
<rect x="944.0" y="343.0" width="7" height="7" rx="1" fill="#C0A850" stroke="#A08830" stroke-width="0.4"/>
<rect x="945.0" y="344.0" width="5" height="2" rx="0.5" fill="#E8D878" opacity="0.5"/>
<rect x="918.0" y="369.0" width="7" height="7" rx="1" fill="#C0A850" stroke="#A08830" stroke-width="0.4"/>
<rect x="919.0" y="370.0" width="5" height="2" rx="0.5" fill="#E8D878" opacity="0.5"/>
<rect x="944.0" y="369.0" width="7" height="7" rx="1" fill="#C0A850" stroke="#A08830" stroke-width="0.4"/>
<rect x="945.0" y="370.0" width="5" height="2" rx="0.5" fill="#E8D878" opacity="0.5"/>
<rect x="918.0" y="395.0" width="7" height="7" rx="1" fill="#C0A850" stroke="#A08830" stroke-width="0.4"/>
<rect x="919.0" y="396.0" width="5" height="2" rx="0.5" fill="#E8D878" opacity="0.5"/>
<rect x="944.0" y="395.0" width="7" height="7" rx="1" fill="#C0A850" stroke="#A08830" stroke-width="0.4"/>
<rect x="945.0" y="396.0" width="5" height="2" rx="0.5" fill="#E8D878" opacity="0.5"/>
<rect x="918.0" y="421.0" width="7" height="7" rx="1" fill="#C0A850" stroke="#A08830" stroke-width="0.4"/>
<rect x="919.0" y="422.0" width="5" height="2" rx="0.5" fill="#E8D878" opacity="0.5"/>
<rect x="944.0" y="421.0" width="7" height="7" rx="1" fill="#C0A850" stroke="#A08830" stroke-width="0.4"/>
<rect x="945.0" y="422.0" width="5" height="2" rx="0.5" fill="#E8D878" opacity="0.5"/>
<text x="515" y="537" font-size="7" fill="#999">Speaker</text>
<text x="925" y="537" text-anchor="end" font-size="7" fill="#999">MIC</text>
<rect x="894" y="60" width="36" height="20" rx="1.5" fill="#D4C44E" stroke="#B0A030" stroke-width="0.5"/>
<text x="912" y="96" text-anchor="middle" font-size="5" fill="#999">USER</text>
<rect x="843" y="60" width="36" height="20" rx="1.5" fill="#D4C44E" stroke="#B0A030" stroke-width="0.5"/>
<text x="861" y="96" text-anchor="middle" font-size="5" fill="#999">BOOT</text>
<rect x="792" y="60" width="36" height="20" rx="1.5" fill="#D4C44E" stroke="#B0A030" stroke-width="0.5"/>
<text x="810" y="96" text-anchor="middle" font-size="5" fill="#999">RESET</text>
<rect x="140" y="101" width="94" height="23" rx="4" fill="url(#gDC3545)" stroke="#8f222c" stroke-width="0.7" filter="url(#pshadow)"/>
<text x="187.0" y="116.0" text-anchor="middle" font-size="9.5" font-weight="bold" fill="#FFF">3V3</text>
<line x1="234" y1="112.5" x2="240" y2="112.5" stroke="#DC3545" stroke-width="2" stroke-linecap="round"/>
<rect x="240" y="101" width="94" height="23" rx="4" fill="url(#gDC3545)" stroke="#8f222c" stroke-width="0.7" filter="url(#pshadow)"/>
<text x="287.0" y="116.0" text-anchor="middle" font-size="9.5" font-weight="bold" fill="#FFF">5V</text>
<line x1="334" y1="112.5" x2="467" y2="112.5" stroke="#DC3545" stroke-width="2" stroke-linecap="round"/>
<circle cx="467" cy="112.5" r="3" fill="#a52733" stroke="#E0C060" stroke-width="0.5"/>
<rect x="140" y="127" width="94" height="23" rx="4" fill="url(#g5CB85C)" stroke="#3b773b" stroke-width="0.7" filter="url(#pshadow)"/>
<text x="187.0" y="142.0" text-anchor="middle" font-size="9.5" font-weight="bold" fill="#FFF">GPIO7</text>
<line x1="234" y1="138.5" x2="240" y2="138.5" stroke="#5CB85C" stroke-width="2" stroke-linecap="round"/>
<rect x="102.5" y="131.0" width="31.5" height="15" rx="3" fill="url(#g5CB85C)" stroke="#376e37" stroke-width="0.5"/>
<text x="118.25" y="142.0" text-anchor="middle" font-size="9" font-weight="600" fill="#FFF">SDA</text>
<rect x="-3.5" y="131.0" width="103.0" height="15" rx="3" fill="url(#gE8883E)" stroke="#8b5125" stroke-width="0.5"/>
<text x="48.0" y="142.0" text-anchor="middle" font-size="9" font-weight="600" fill="#FFF">TOUCH_CHANNEL5</text>
<rect x="240" y="127" width="94" height="23" rx="4" fill="url(#gDC3545)" stroke="#8f222c" stroke-width="0.7" filter="url(#pshadow)"/>
<text x="287.0" y="142.0" text-anchor="middle" font-size="9.5" font-weight="bold" fill="#FFF">5V</text>
<line x1="334" y1="138.5" x2="467" y2="138.5" stroke="#DC3545" stroke-width="2" stroke-linecap="round"/>
<circle cx="467" cy="138.5" r="3" fill="#a52733" stroke="#E0C060" stroke-width="0.5"/>
<rect x="140" y="153" width="94" height="23" rx="4" fill="url(#g5CB85C)" stroke="#3b773b" stroke-width="0.7" filter="url(#pshadow)"/>
<text x="187.0" y="168.0" text-anchor="middle" font-size="9.5" font-weight="bold" fill="#FFF">GPIO8</text>
<line x1="234" y1="164.5" x2="240" y2="164.5" stroke="#5CB85C" stroke-width="2" stroke-linecap="round"/>
<rect x="102.5" y="157.0" width="31.5" height="15" rx="3" fill="url(#g5CB85C)" stroke="#376e37" stroke-width="0.5"/>
<text x="118.25" y="168.0" text-anchor="middle" font-size="9" font-weight="600" fill="#FFF">SCL</text>
<rect x="-3.5" y="157.0" width="103.0" height="15" rx="3" fill="url(#gE8883E)" stroke="#8b5125" stroke-width="0.5"/>
<text x="48.0" y="168.0" text-anchor="middle" font-size="9" font-weight="600" fill="#FFF">TOUCH_CHANNEL6</text>
<rect x="240" y="153" width="94" height="23" rx="4" fill="url(#g343A40)" stroke="#212529" stroke-width="0.7" filter="url(#pshadow)"/>
<text x="287.0" y="168.0" text-anchor="middle" font-size="9.5" font-weight="bold" fill="#FFF">GND</text>
<line x1="334" y1="164.5" x2="467" y2="164.5" stroke="#343A40" stroke-width="2" stroke-linecap="round"/>
<circle cx="467" cy="164.5" r="3" fill="#272b30" stroke="#E0C060" stroke-width="0.5"/>
<rect x="140" y="179" width="94" height="23" rx="4" fill="url(#g9B6DB5)" stroke="#644675" stroke-width="0.7" filter="url(#pshadow)"/>
<text x="187.0" y="194.0" text-anchor="middle" font-size="9.5" font-weight="bold" fill="#FFF">GPIO23</text>
<line x1="234" y1="190.5" x2="240" y2="190.5" stroke="#9B6DB5" stroke-width="2" stroke-linecap="round"/>
<rect x="37.5" y="183.0" width="96.5" height="15" rx="3" fill="url(#g9B6DB5)" stroke="#5d416c" stroke-width="0.5"/>
<text x="85.75" y="194.0" text-anchor="middle" font-size="9" font-weight="600" fill="#FFF">ADC1_CHANNEL7</text>
<rect x="240" y="179" width="94" height="23" rx="4" fill="url(#g5B9BD5)" stroke="#3b648a" stroke-width="0.7" filter="url(#pshadow)"/>
<text x="287.0" y="194.0" text-anchor="middle" font-size="9.5" font-weight="bold" fill="#FFF">GPIO37</text>
<line x1="334" y1="190.5" x2="467" y2="190.5" stroke="#5B9BD5" stroke-width="2" stroke-linecap="round"/>
<circle cx="467" cy="190.5" r="3" fill="#44749f" stroke="#E0C060" stroke-width="0.5"/>
<rect x="140" y="205" width="94" height="23" rx="4" fill="url(#g343A40)" stroke="#212529" stroke-width="0.7" filter="url(#pshadow)"/>
<text x="187.0" y="220.0" text-anchor="middle" font-size="9.5" font-weight="bold" fill="#FFF">GND</text>
<line x1="234" y1="216.5" x2="240" y2="216.5" stroke="#343A40" stroke-width="2" stroke-linecap="round"/>
<rect x="240" y="205" width="94" height="23" rx="4" fill="url(#g5B9BD5)" stroke="#3b648a" stroke-width="0.7" filter="url(#pshadow)"/>
<text x="287.0" y="220.0" text-anchor="middle" font-size="9.5" font-weight="bold" fill="#FFF">GPIO38</text>
<line x1="334" y1="216.5" x2="467" y2="216.5" stroke="#5B9BD5" stroke-width="2" stroke-linecap="round"/>
<circle cx="467" cy="216.5" r="3" fill="#44749f" stroke="#E0C060" stroke-width="0.5"/>
<rect x="140" y="231" width="94" height="23" rx="4" fill="url(#gE8883E)" stroke="#965828" stroke-width="0.7" filter="url(#pshadow)"/>
<text x="187.0" y="246.0" text-anchor="middle" font-size="9.5" font-weight="bold" fill="#FFF">GPIO5</text>
<line x1="234" y1="242.5" x2="240" y2="242.5" stroke="#E8883E" stroke-width="2" stroke-linecap="round"/>
<rect x="31.0" y="235.0" width="103.0" height="15" rx="3" fill="url(#gE8883E)" stroke="#8b5125" stroke-width="0.5"/>
<text x="82.5" y="246.0" text-anchor="middle" font-size="9" font-weight="600" fill="#FFF">TOUCH_CHANNEL3</text>
<rect x="240" y="231" width="94" height="23" rx="4" fill="url(#gE8883E)" stroke="#965828" stroke-width="0.7" filter="url(#pshadow)"/>
<text x="287.0" y="246.0" text-anchor="middle" font-size="9.5" font-weight="bold" fill="#FFF">GPIO4</text>
<line x1="334" y1="242.5" x2="467" y2="242.5" stroke="#E8883E" stroke-width="2" stroke-linecap="round"/>
<circle cx="467" cy="242.5" r="3" fill="#ae662e" stroke="#E0C060" stroke-width="0.5"/>
<rect x="140" y="257" width="94" height="23" rx="4" fill="url(#g9B6DB5)" stroke="#644675" stroke-width="0.7" filter="url(#pshadow)"/>
<text x="187.0" y="272.0" text-anchor="middle" font-size="9.5" font-weight="bold" fill="#FFF">GPIO20</text>
<line x1="234" y1="268.5" x2="240" y2="268.5" stroke="#9B6DB5" stroke-width="2" stroke-linecap="round"/>
<rect x="37.5" y="261.0" width="96.5" height="15" rx="3" fill="url(#g9B6DB5)" stroke="#5d416c" stroke-width="0.5"/>
<text x="85.75" y="272.0" text-anchor="middle" font-size="9" font-weight="600" fill="#FFF">ADC1_CHANNEL4</text>
<rect x="240" y="257" width="94" height="23" rx="4" fill="url(#g343A40)" stroke="#212529" stroke-width="0.7" filter="url(#pshadow)"/>
<text x="287.0" y="272.0" text-anchor="middle" font-size="9.5" font-weight="bold" fill="#FFF">GND</text>
<line x1="334" y1="268.5" x2="467" y2="268.5" stroke="#343A40" stroke-width="2" stroke-linecap="round"/>
<circle cx="467" cy="268.5" r="3" fill="#272b30" stroke="#E0C060" stroke-width="0.5"/>
<rect x="140" y="283" width="94" height="23" rx="4" fill="url(#g9B6DB5)" stroke="#644675" stroke-width="0.7" filter="url(#pshadow)"/>
<text x="187.0" y="298.0" text-anchor="middle" font-size="9.5" font-weight="bold" fill="#FFF">GPIO21</text>
<line x1="234" y1="294.5" x2="240" y2="294.5" stroke="#9B6DB5" stroke-width="2" stroke-linecap="round"/>
<rect x="37.5" y="287.0" width="96.5" height="15" rx="3" fill="url(#g9B6DB5)" stroke="#5d416c" stroke-width="0.5"/>
<text x="85.75" y="298.0" text-anchor="middle" font-size="9" font-weight="600" fill="#FFF">ADC1_CHANNEL5</text>
<rect x="240" y="283" width="94" height="23" rx="4" fill="url(#g9B6DB5)" stroke="#644675" stroke-width="0.7" filter="url(#pshadow)"/>
<text x="287.0" y="298.0" text-anchor="middle" font-size="9.5" font-weight="bold" fill="#FFF">GPIO22</text>
<line x1="334" y1="294.5" x2="467" y2="294.5" stroke="#9B6DB5" stroke-width="2" stroke-linecap="round"/>
<circle cx="467" cy="294.5" r="3" fill="#745187" stroke="#E0C060" stroke-width="0.5"/>
<rect x="140" y="309" width="94" height="23" rx="4" fill="url(#gDC3545)" stroke="#8f222c" stroke-width="0.7" filter="url(#pshadow)"/>
<text x="187.0" y="324.0" text-anchor="middle" font-size="9.5" font-weight="bold" fill="#FFF">3V3</text>
<line x1="234" y1="320.5" x2="240" y2="320.5" stroke="#DC3545" stroke-width="2" stroke-linecap="round"/>
<rect x="240" y="309" width="94" height="23" rx="4" fill="url(#gC9B93B)" stroke="#827826" stroke-width="0.7" filter="url(#pshadow)"/>
<text x="287.0" y="324.0" text-anchor="middle" font-size="9.5" font-weight="bold" fill="#FFF">GPIO24</text>
<line x1="334" y1="320.5" x2="467" y2="320.5" stroke="#C9B93B" stroke-width="2" stroke-linecap="round"/>
<circle cx="467" cy="320.5" r="3" fill="#968a2c" stroke="#E0C060" stroke-width="0.5"/>
<rect x="140" y="335" width="94" height="23" rx="4" fill="url(#gC9B93B)" stroke="#827826" stroke-width="0.7" filter="url(#pshadow)"/>
<text x="187.0" y="350.0" text-anchor="middle" font-size="9.5" font-weight="bold" fill="#FFF">GPIO25</text>
<line x1="234" y1="346.5" x2="240" y2="346.5" stroke="#C9B93B" stroke-width="2" stroke-linecap="round"/>
<rect x="63.5" y="339.0" width="70.5" height="15" rx="3" fill="url(#gC9B93B)" stroke="#786f23" stroke-width="0.5"/>
<text x="98.75" y="350.0" text-anchor="middle" font-size="9" font-weight="600" fill="#FFF">USB1P1_P0</text>
<rect x="240" y="335" width="94" height="23" rx="4" fill="url(#g343A40)" stroke="#212529" stroke-width="0.7" filter="url(#pshadow)"/>
<text x="287.0" y="350.0" text-anchor="middle" font-size="9.5" font-weight="bold" fill="#FFF">GND</text>
<line x1="334" y1="346.5" x2="467" y2="346.5" stroke="#343A40" stroke-width="2" stroke-linecap="round"/>
<circle cx="467" cy="346.5" r="3" fill="#272b30" stroke="#E0C060" stroke-width="0.5"/>
<rect x="140" y="361" width="94" height="23" rx="4" fill="url(#gC9B93B)" stroke="#827826" stroke-width="0.7" filter="url(#pshadow)"/>
<text x="187.0" y="376.0" text-anchor="middle" font-size="9.5" font-weight="bold" fill="#FFF">GPIO26</text>
<line x1="234" y1="372.5" x2="240" y2="372.5" stroke="#C9B93B" stroke-width="2" stroke-linecap="round"/>
<rect x="63.5" y="365.0" width="70.5" height="15" rx="3" fill="url(#gC9B93B)" stroke="#786f23" stroke-width="0.5"/>
<text x="98.75" y="376.0" text-anchor="middle" font-size="9" font-weight="600" fill="#FFF">USB1P1_N1</text>
<rect x="240" y="361" width="94" height="23" rx="4" fill="url(#gC9B93B)" stroke="#827826" stroke-width="0.7" filter="url(#pshadow)"/>
<text x="287.0" y="376.0" text-anchor="middle" font-size="9.5" font-weight="bold" fill="#FFF">GPIO27</text>
<line x1="334" y1="372.5" x2="467" y2="372.5" stroke="#C9B93B" stroke-width="2" stroke-linecap="round"/>
<circle cx="467" cy="372.5" r="3" fill="#968a2c" stroke="#E0C060" stroke-width="0.5"/>
<rect x="140" y="387" width="94" height="23" rx="4" fill="url(#g5CB85C)" stroke="#3b773b" stroke-width="0.7" filter="url(#pshadow)"/>
<text x="187.0" y="402.0" text-anchor="middle" font-size="9.5" font-weight="bold" fill="#FFF">GPIO32</text>
<line x1="234" y1="398.5" x2="240" y2="398.5" stroke="#5CB85C" stroke-width="2" stroke-linecap="round"/>
<rect x="240" y="387" width="94" height="23" rx="4" fill="url(#g5CB85C)" stroke="#3b773b" stroke-width="0.7" filter="url(#pshadow)"/>
<text x="287.0" y="402.0" text-anchor="middle" font-size="9.5" font-weight="bold" fill="#FFF">GPIO33</text>
<line x1="334" y1="398.5" x2="467" y2="398.5" stroke="#5CB85C" stroke-width="2" stroke-linecap="round"/>
<circle cx="467" cy="398.5" r="3" fill="#458a45" stroke="#E0C060" stroke-width="0.5"/>
<rect x="140" y="413" width="94" height="23" rx="4" fill="url(#g343A40)" stroke="#212529" stroke-width="0.7" filter="url(#pshadow)"/>
<text x="187.0" y="428.0" text-anchor="middle" font-size="9.5" font-weight="bold" fill="#FFF">GND</text>
<line x1="234" y1="424.5" x2="240" y2="424.5" stroke="#343A40" stroke-width="2" stroke-linecap="round"/>
<rect x="240" y="413" width="94" height="23" rx="4" fill="url(#g5CB85C)" stroke="#3b773b" stroke-width="0.7" filter="url(#pshadow)"/>
<text x="287.0" y="428.0" text-anchor="middle" font-size="9.5" font-weight="bold" fill="#FFF">GPIO36</text>
<line x1="334" y1="424.5" x2="467" y2="424.5" stroke="#5CB85C" stroke-width="2" stroke-linecap="round"/>
<circle cx="467" cy="424.5" r="3" fill="#458a45" stroke="#E0C060" stroke-width="0.5"/>
<rect x="1106" y="101" width="94" height="23" rx="4" fill="url(#gDC3545)" stroke="#8f222c" stroke-width="0.7" filter="url(#pshadow)"/>
<text x="1153.0" y="116.0" text-anchor="middle" font-size="9.5" font-weight="bold" fill="#FFF">5V</text>
<line x1="973" y1="112.5" x2="1106" y2="112.5" stroke="#DC3545" stroke-width="2" stroke-linecap="round"/>
<circle cx="973" cy="112.5" r="3" fill="#a52733" stroke="#E0C060" stroke-width="0.5"/>
<rect x="1206" y="101" width="94" height="23" rx="4" fill="url(#gDC3545)" stroke="#8f222c" stroke-width="0.7" filter="url(#pshadow)"/>
<text x="1253.0" y="116.0" text-anchor="middle" font-size="9.5" font-weight="bold" fill="#FFF">ESP_LDO_VO4</text>
<line x1="1200" y1="112.5" x2="1206" y2="112.5" stroke="#DC3545" stroke-width="2" stroke-linecap="round"/>
<rect x="1106" y="127" width="94" height="23" rx="4" fill="url(#g343A40)" stroke="#212529" stroke-width="0.7" filter="url(#pshadow)"/>
<text x="1153.0" y="142.0" text-anchor="middle" font-size="9.5" font-weight="bold" fill="#FFF">GND</text>
<line x1="973" y1="138.5" x2="1106" y2="138.5" stroke="#343A40" stroke-width="2" stroke-linecap="round"/>
<circle cx="973" cy="138.5" r="3" fill="#272b30" stroke="#E0C060" stroke-width="0.5"/>
<rect x="1206" y="127" width="94" height="23" rx="4" fill="url(#g343A40)" stroke="#212529" stroke-width="0.7" filter="url(#pshadow)"/>
<text x="1253.0" y="142.0" text-anchor="middle" font-size="9.5" font-weight="bold" fill="#FFF">GND</text>
<line x1="1200" y1="138.5" x2="1206" y2="138.5" stroke="#343A40" stroke-width="2" stroke-linecap="round"/>
<rect x="1106" y="153" width="94" height="23" rx="4" fill="url(#gDC3545)" stroke="#8f222c" stroke-width="0.7" filter="url(#pshadow)"/>
<text x="1153.0" y="168.0" text-anchor="middle" font-size="9.5" font-weight="bold" fill="#FFF">3V3</text>
<line x1="973" y1="164.5" x2="1106" y2="164.5" stroke="#DC3545" stroke-width="2" stroke-linecap="round"/>
<circle cx="973" cy="164.5" r="3" fill="#a52733" stroke="#E0C060" stroke-width="0.5"/>
<rect x="1206" y="153" width="94" height="23" rx="4" fill="url(#g7E8A7E)" stroke="#515951" stroke-width="0.7" filter="url(#pshadow)"/>
<text x="1253.0" y="168.0" text-anchor="middle" font-size="9.5" font-weight="bold" fill="#FFF">GPIO0</text>
<line x1="1200" y1="164.5" x2="1206" y2="164.5" stroke="#7E8A7E" stroke-width="2" stroke-linecap="round"/>
<rect x="1306" y="157.0" width="77.0" height="15" rx="3" fill="url(#g7E8A7E)" stroke="#4b524b" stroke-width="0.5"/>
<text x="1344.5" y="168.0" text-anchor="middle" font-size="9" font-weight="600" fill="#FFF">XTAL_32K_N</text>
<rect x="1106" y="179" width="94" height="23" rx="4" fill="url(#g343A40)" stroke="#212529" stroke-width="0.7" filter="url(#pshadow)"/>
<text x="1153.0" y="194.0" text-anchor="middle" font-size="9.5" font-weight="bold" fill="#FFF">GND</text>
<line x1="973" y1="190.5" x2="1106" y2="190.5" stroke="#343A40" stroke-width="2" stroke-linecap="round"/>
<circle cx="973" cy="190.5" r="3" fill="#272b30" stroke="#E0C060" stroke-width="0.5"/>
<rect x="1206" y="179" width="94" height="23" rx="4" fill="url(#g7E8A7E)" stroke="#515951" stroke-width="0.7" filter="url(#pshadow)"/>
<text x="1253.0" y="194.0" text-anchor="middle" font-size="9.5" font-weight="bold" fill="#FFF">GPIO1</text>
<line x1="1200" y1="190.5" x2="1206" y2="190.5" stroke="#7E8A7E" stroke-width="2" stroke-linecap="round"/>
<rect x="1306" y="183.0" width="77.0" height="15" rx="3" fill="url(#g7E8A7E)" stroke="#4b524b" stroke-width="0.5"/>
<text x="1344.5" y="194.0" text-anchor="middle" font-size="9" font-weight="600" fill="#FFF">XTAL_32K_P</text>
<rect x="1106" y="205" width="94" height="23" rx="4" fill="url(#gE8883E)" stroke="#965828" stroke-width="0.7" filter="url(#pshadow)"/>
<text x="1153.0" y="220.0" text-anchor="middle" font-size="9.5" font-weight="bold" fill="#FFF">GPIO3</text>
<line x1="973" y1="216.5" x2="1106" y2="216.5" stroke="#E8883E" stroke-width="2" stroke-linecap="round"/>
<circle cx="973" cy="216.5" r="3" fill="#ae662e" stroke="#E0C060" stroke-width="0.5"/>
<rect x="1206" y="205" width="94" height="23" rx="4" fill="url(#g343A40)" stroke="#212529" stroke-width="0.7" filter="url(#pshadow)"/>
<text x="1253.0" y="220.0" text-anchor="middle" font-size="9.5" font-weight="bold" fill="#FFF">GND</text>
<line x1="1200" y1="216.5" x2="1206" y2="216.5" stroke="#343A40" stroke-width="2" stroke-linecap="round"/>
<rect x="1106" y="231" width="94" height="23" rx="4" fill="url(#gE8883E)" stroke="#965828" stroke-width="0.7" filter="url(#pshadow)"/>
<text x="1153.0" y="246.0" text-anchor="middle" font-size="9.5" font-weight="bold" fill="#FFF">GPIO2</text>
<line x1="973" y1="242.5" x2="1106" y2="242.5" stroke="#E8883E" stroke-width="2" stroke-linecap="round"/>
<circle cx="973" cy="242.5" r="3" fill="#ae662e" stroke="#E0C060" stroke-width="0.5"/>
<rect x="1206" y="231" width="94" height="23" rx="4" fill="url(#gE8883E)" stroke="#965828" stroke-width="0.7" filter="url(#pshadow)"/>
<text x="1253.0" y="246.0" text-anchor="middle" font-size="9.5" font-weight="bold" fill="#FFF">GPIO6</text>
<line x1="1200" y1="242.5" x2="1206" y2="242.5" stroke="#E8883E" stroke-width="2" stroke-linecap="round"/>
<rect x="1306" y="235.0" width="103.0" height="15" rx="3" fill="url(#gE8883E)" stroke="#8b5125" stroke-width="0.5"/>
<text x="1357.5" y="246.0" text-anchor="middle" font-size="9" font-weight="600" fill="#FFF">TOUCH_CHANNEL4</text>
<rect x="1106" y="257" width="94" height="23" rx="4" fill="url(#gE74C8A)" stroke="#963159" stroke-width="0.7" filter="url(#pshadow)"/>
<text x="1153.0" y="272.0" text-anchor="middle" font-size="9.5" font-weight="bold" fill="#FFF">PIN_SRST</text>
<line x1="973" y1="268.5" x2="1106" y2="268.5" stroke="#E74C8A" stroke-width="2" stroke-linecap="round"/>
<circle cx="973" cy="268.5" r="3" fill="#ad3967" stroke="#E0C060" stroke-width="0.5"/>
<rect x="1206" y="257" width="94" height="23" rx="4" fill="url(#gE74C8A)" stroke="#963159" stroke-width="0.7" filter="url(#pshadow)"/>
<text x="1253.0" y="272.0" text-anchor="middle" font-size="9.5" font-weight="bold" fill="#FFF">PIN_TRST</text>
<line x1="1200" y1="268.5" x2="1206" y2="268.5" stroke="#E74C8A" stroke-width="2" stroke-linecap="round"/>
<rect x="1106" y="283" width="94" height="23" rx="4" fill="url(#gE74C8A)" stroke="#963159" stroke-width="0.7" filter="url(#pshadow)"/>
<text x="1153.0" y="298.0" text-anchor="middle" font-size="9.5" font-weight="bold" fill="#FFF">PIN_TCK</text>
<line x1="973" y1="294.5" x2="1106" y2="294.5" stroke="#E74C8A" stroke-width="2" stroke-linecap="round"/>
<circle cx="973" cy="294.5" r="3" fill="#ad3967" stroke="#E0C060" stroke-width="0.5"/>
<rect x="1206" y="283" width="94" height="23" rx="4" fill="url(#gE74C8A)" stroke="#963159" stroke-width="0.7" filter="url(#pshadow)"/>
<text x="1253.0" y="298.0" text-anchor="middle" font-size="9.5" font-weight="bold" fill="#FFF">PIN_TMS</text>
<line x1="1200" y1="294.5" x2="1206" y2="294.5" stroke="#E74C8A" stroke-width="2" stroke-linecap="round"/>
<rect x="1106" y="309" width="94" height="23" rx="4" fill="url(#gE74C8A)" stroke="#963159" stroke-width="0.7" filter="url(#pshadow)"/>
<text x="1153.0" y="324.0" text-anchor="middle" font-size="9.5" font-weight="bold" fill="#FFF">PIN_TDI</text>
<line x1="973" y1="320.5" x2="1106" y2="320.5" stroke="#E74C8A" stroke-width="2" stroke-linecap="round"/>
<circle cx="973" cy="320.5" r="3" fill="#ad3967" stroke="#E0C060" stroke-width="0.5"/>
<rect x="1206" y="309" width="94" height="23" rx="4" fill="url(#g343A40)" stroke="#212529" stroke-width="0.7" filter="url(#pshadow)"/>
<text x="1253.0" y="324.0" text-anchor="middle" font-size="9.5" font-weight="bold" fill="#FFF">GND</text>
<line x1="1200" y1="320.5" x2="1206" y2="320.5" stroke="#343A40" stroke-width="2" stroke-linecap="round"/>
<rect x="1106" y="335" width="94" height="23" rx="4" fill="url(#gE74C8A)" stroke="#963159" stroke-width="0.7" filter="url(#pshadow)"/>
<text x="1153.0" y="350.0" text-anchor="middle" font-size="9.5" font-weight="bold" fill="#FFF">PIN_TDO</text>
<line x1="973" y1="346.5" x2="1106" y2="346.5" stroke="#E74C8A" stroke-width="2" stroke-linecap="round"/>
<circle cx="973" cy="346.5" r="3" fill="#ad3967" stroke="#E0C060" stroke-width="0.5"/>
<rect x="1206" y="335" width="94" height="23" rx="4" fill="url(#gB07840)" stroke="#724e29" stroke-width="0.7" filter="url(#pshadow)"/>
<text x="1253.0" y="350.0" text-anchor="middle" font-size="9.5" font-weight="bold" fill="#FFF">C6_U0RXD</text>
<line x1="1200" y1="346.5" x2="1206" y2="346.5" stroke="#B07840" stroke-width="2" stroke-linecap="round"/>
<rect x="1106" y="361" width="94" height="23" rx="4" fill="url(#gB07840)" stroke="#724e29" stroke-width="0.7" filter="url(#pshadow)"/>
<text x="1153.0" y="376.0" text-anchor="middle" font-size="9.5" font-weight="bold" fill="#FFF">C6_IO12</text>
<line x1="973" y1="372.5" x2="1106" y2="372.5" stroke="#B07840" stroke-width="2" stroke-linecap="round"/>
<circle cx="973" cy="372.5" r="3" fill="#845a30" stroke="#E0C060" stroke-width="0.5"/>
<rect x="1206" y="361" width="94" height="23" rx="4" fill="url(#gB07840)" stroke="#724e29" stroke-width="0.7" filter="url(#pshadow)"/>
<text x="1253.0" y="376.0" text-anchor="middle" font-size="9.5" font-weight="bold" fill="#FFF">C6_U0TXD</text>
<line x1="1200" y1="372.5" x2="1206" y2="372.5" stroke="#B07840" stroke-width="2" stroke-linecap="round"/>
<rect x="1106" y="387" width="94" height="23" rx="4" fill="url(#gB07840)" stroke="#724e29" stroke-width="0.7" filter="url(#pshadow)"/>
<text x="1153.0" y="402.0" text-anchor="middle" font-size="9.5" font-weight="bold" fill="#FFF">C6_IO13</text>
<line x1="973" y1="398.5" x2="1106" y2="398.5" stroke="#B07840" stroke-width="2" stroke-linecap="round"/>
<circle cx="973" cy="398.5" r="3" fill="#845a30" stroke="#E0C060" stroke-width="0.5"/>
<rect x="1206" y="387" width="94" height="23" rx="4" fill="url(#gB07840)" stroke="#724e29" stroke-width="0.7" filter="url(#pshadow)"/>
<text x="1253.0" y="402.0" text-anchor="middle" font-size="9.5" font-weight="bold" fill="#FFF">C6_IO9</text>
<line x1="1200" y1="398.5" x2="1206" y2="398.5" stroke="#B07840" stroke-width="2" stroke-linecap="round"/>
<rect x="1106" y="413" width="94" height="23" rx="4" fill="url(#g343A40)" stroke="#212529" stroke-width="0.7" filter="url(#pshadow)"/>
<text x="1153.0" y="428.0" text-anchor="middle" font-size="9.5" font-weight="bold" fill="#FFF">GND</text>
<line x1="973" y1="424.5" x2="1106" y2="424.5" stroke="#343A40" stroke-width="2" stroke-linecap="round"/>
<circle cx="973" cy="424.5" r="3" fill="#272b30" stroke="#E0C060" stroke-width="0.5"/>
<rect x="1206" y="413" width="94" height="23" rx="4" fill="url(#g343A40)" stroke="#212529" stroke-width="0.7" filter="url(#pshadow)"/>
<text x="1253.0" y="428.0" text-anchor="middle" font-size="9.5" font-weight="bold" fill="#FFF">GND</text>
<line x1="1200" y1="424.5" x2="1206" y2="424.5" stroke="#343A40" stroke-width="2" stroke-linecap="round"/>
<rect x="363.75" y="183.0" width="70.5" height="15" rx="3" fill="url(#g5B9BD5)" stroke="#365d7f" stroke-width="0.5"/>
<text x="399.0" y="194.0" text-anchor="middle" font-size="9" font-weight="600" fill="#FFF">UART0_TXD</text>
<rect x="363.75" y="209.0" width="70.5" height="15" rx="3" fill="url(#g5B9BD5)" stroke="#365d7f" stroke-width="0.5"/>
<text x="399.0" y="220.0" text-anchor="middle" font-size="9" font-weight="600" fill="#FFF">UART0_RXD</text>
<rect x="347.5" y="235.0" width="103.0" height="15" rx="3" fill="url(#gE8883E)" stroke="#8b5125" stroke-width="0.5"/>
<text x="399.0" y="246.0" text-anchor="middle" font-size="9" font-weight="600" fill="#FFF">TOUCH_CHANNEL2</text>
<rect x="350.75" y="287.0" width="96.5" height="15" rx="3" fill="url(#g9B6DB5)" stroke="#5d416c" stroke-width="0.5"/>
<text x="399.0" y="298.0" text-anchor="middle" font-size="9" font-weight="600" fill="#FFF">ADC1_CHANNEL6</text>
<rect x="363.75" y="313.0" width="70.5" height="15" rx="3" fill="url(#gC9B93B)" stroke="#786f23" stroke-width="0.5"/>
<text x="399.0" y="324.0" text-anchor="middle" font-size="9" font-weight="600" fill="#FFF">USB1P1_N0</text>
<rect x="363.75" y="365.0" width="70.5" height="15" rx="3" fill="url(#gC9B93B)" stroke="#786f23" stroke-width="0.5"/>
<text x="399.0" y="376.0" text-anchor="middle" font-size="9" font-weight="600" fill="#FFF">USB1P1_P1</text>
<rect x="989.5" y="209.0" width="103.0" height="15" rx="3" fill="url(#gE8883E)" stroke="#8b5125" stroke-width="0.5"/>
<text x="1041.0" y="220.0" text-anchor="middle" font-size="9" font-weight="600" fill="#FFF">TOUCH_CHANNEL1</text>
<rect x="989.5" y="235.0" width="103.0" height="15" rx="3" fill="url(#gE8883E)" stroke="#8b5125" stroke-width="0.5"/>
<text x="1041.0" y="246.0" text-anchor="middle" font-size="9" font-weight="600" fill="#FFF">TOUCH_CHANNEL0</text>
<rect x="30" y="566" width="1380" height="92" rx="8" fill="#F7F5F2" stroke="#E0DDD8" stroke-width="1"/>
<rect x="52.0" y="574" width="18" height="16" rx="3" fill="url(#gDC3545)" stroke="#8f222c" stroke-width="0.5"/>
<text x="76.0" y="586.5" font-size="11.5" fill="#444">Power</text>
<rect x="392.0" y="574" width="18" height="16" rx="3" fill="url(#g5CB85C)" stroke="#3b773b" stroke-width="0.5"/>
<text x="416.0" y="586.5" font-size="11.5" fill="#444">GPIO</text>
<rect x="732.0" y="574" width="18" height="16" rx="3" fill="url(#gE8883E)" stroke="#965828" stroke-width="0.5"/>
<text x="756.0" y="586.5" font-size="11.5" fill="#444">Touch Channel</text>
<rect x="1072.0" y="574" width="18" height="16" rx="3" fill="url(#g9B6DB5)" stroke="#644675" stroke-width="0.5"/>
<text x="1096.0" y="586.5" font-size="11.5" fill="#444">ADC Channel</text>
<rect x="52.0" y="600" width="18" height="16" rx="3" fill="url(#gC9B93B)" stroke="#827826" stroke-width="0.5"/>
<text x="76.0" y="612.5" font-size="11.5" fill="#444">USB</text>
<rect x="392.0" y="600" width="18" height="16" rx="3" fill="url(#g5B9BD5)" stroke="#3b648a" stroke-width="0.5"/>
<text x="416.0" y="612.5" font-size="11.5" fill="#444">UART</text>
<rect x="732.0" y="600" width="18" height="16" rx="3" fill="url(#g7E8A7E)" stroke="#515951" stroke-width="0.5"/>
<text x="756.0" y="612.5" font-size="11.5" fill="#444">RTC Clock source</text>
<rect x="1072.0" y="600" width="18" height="16" rx="3" fill="url(#gB07840)" stroke="#724e29" stroke-width="0.5"/>
<text x="1096.0" y="612.5" font-size="11.5" fill="#444">ESP32-C6 GPIO</text>
<rect x="52.0" y="626" width="18" height="16" rx="3" fill="url(#gE74C8A)" stroke="#963159" stroke-width="0.5"/>
<text x="76.0" y="638.5" font-size="11.5" fill="#444">Custom Assign</text>
</svg>